<svg width="6778" height="2104" xmlns="http://www.w3.org/2000/svg" xmlns:xlink="http://www.w3.org/1999/xlink" xml:space="preserve" overflow="hidden"><g transform="translate(32 -22)"><g><rect x="24.0001" y="27.0002" width="6719" height="2049" fill="#FFFFFF" fill-opacity="1"/><path d="M4590 1859 5057.46 1270 6636 1270 6168.54 1859Z" fill="#C5E0B4" fill-rule="evenodd" fill-opacity="1"/><path d="M2732 175.168C2732 120.399 2776.4 76 2831.17 76L3227.83 76C3282.6 76 3327 120.399 3327 175.168L3327 756.831C3327 811.601 3282.6 856 3227.83 856L2831.17 856C2776.4 856 2732 811.601 2732 756.831Z" stroke="#000000" stroke-width="13.75" stroke-linecap="square" stroke-linejoin="miter" stroke-miterlimit="8" stroke-dasharray="41.25 13.75" stroke-opacity="1" fill="none" fill-rule="evenodd"/><text fill="#000000" fill-opacity="1" font-family="Times New Roman,Times New Roman_MSFontService,sans-serif" font-style="normal" font-variant="normal" font-weight="400" font-stretch="normal" font-size="128" text-anchor="start" direction="ltr" writing-mode="lr-tb" unicode-bidi="normal" text-decoration="none" transform="matrix(1 0 0 1 2812.38 513)">Sof</text><text fill="#000000" fill-opacity="1" font-family="Times New Roman,Times New Roman_MSFontService,sans-serif" font-style="normal" font-variant="normal" font-weight="400" font-stretch="normal" font-size="128" text-anchor="start" direction="ltr" writing-mode="lr-tb" unicode-bidi="normal" text-decoration="none" transform="matrix(1 0 0 1 2991.13 513)">t</text><text fill="#000000" fill-opacity="1" font-family="Times New Roman,Times New Roman_MSFontService,sans-serif" font-style="normal" font-variant="normal" font-weight="400" font-stretch="normal" font-size="128" text-anchor="start" direction="ltr" writing-mode="lr-tb" unicode-bidi="normal" text-decoration="none" transform="matrix(1 0 0 1 3026.65 513)">max</text><text fill="#000000" fill-opacity="1" font-family="Times New Roman,Times New Roman_MSFontService,sans-serif" font-style="normal" font-variant="normal" font-weight="700" font-stretch="normal" font-size="147" text-anchor="start" direction="ltr" writing-mode="lr-tb" unicode-bidi="normal" text-decoration="none" transform="matrix(1 0 0 1 56.5085 232)">Step 1:</text><text fill="#000000" fill-opacity="1" font-family="Times New Roman,Times New Roman_MSFontService,sans-serif" font-style="normal" font-variant="normal" font-weight="700" font-stretch="normal" font-size="147" text-anchor="start" direction="ltr" writing-mode="lr-tb" unicode-bidi="normal" text-decoration="none" transform="matrix(1 0 0 1 56.5085 1181)">Step 2:</text><path d="M2980 1201.84C2980 1130.68 3037.68 1073 3108.84 1073L3893.16 1073C3964.32 1073 4022 1130.68 4022 1201.84L4022 1717.16C4022 1788.32 3964.32 1846 3893.16 1846L3108.84 1846C3037.68 1846 2980 1788.32 2980 1717.16Z" stroke="#000000" stroke-width="13.75" stroke-linecap="square" stroke-linejoin="miter" stroke-miterlimit="8" stroke-dasharray="41.25 13.75" stroke-opacity="1" fill="none" fill-rule="evenodd"/><text fill="#000000" fill-opacity="1" font-family="Times New Roman,Times New Roman_MSFontService,sans-serif" font-style="normal" font-variant="normal" font-weight="400" font-stretch="normal" font-size="128" text-anchor="start" direction="ltr" writing-mode="lr-tb" unicode-bidi="normal" text-decoration="none" transform="matrix(1 0 0 1 3046.77 1430)">Apply MAML on </text><text fill="#000000" fill-opacity="1" font-family="Times New Roman,Times New Roman_MSFontService,sans-serif" font-style="normal" font-variant="normal" font-weight="400" font-stretch="normal" font-size="128" text-anchor="start" direction="ltr" writing-mode="lr-tb" unicode-bidi="normal" text-decoration="none" transform="matrix(1 0 0 1 3091.29 1584)">Initialization</text><text fill="#000000" fill-opacity="1" font-family="Cambria Math,Cambria Math_MSFontService,sans-serif" font-style="normal" font-variant="normal" font-weight="400" font-stretch="normal" font-size="128" text-anchor="start" direction="ltr" writing-mode="lr-tb" unicode-bidi="normal" text-decoration="none" transform="matrix(1 0 0 1 3777.65 1584)">ğœƒ</text><text fill="#000000" fill-opacity="1" font-family="Cambria Math,Cambria Math_MSFontService,sans-serif" font-style="normal" font-variant="normal" font-weight="400" font-stretch="normal" font-size="93" text-anchor="start" direction="ltr" writing-mode="lr-tb" unicode-bidi="normal" text-decoration="none" transform="matrix(1 0 0 1 3856.09 1537)">â‹†</text><path d="M0.0134994-6.87499 143.921-6.59242 143.894 7.15756-0.0134994 6.87499ZM137.073-20.3559 178.282 0.350066 136.992 20.894Z" fill="#000000" fill-rule="nonzero" fill-opacity="1" transform="matrix(1 0 0 -1 2802 1460.35)"/><text fill="#000000" fill-opacity="1" font-family="Cambria Math,Cambria Math_MSFontService,sans-serif" font-style="normal" font-variant="normal" font-weight="400" font-stretch="normal" font-size="165" text-anchor="start" direction="ltr" writing-mode="lr-tb" unicode-bidi="normal" text-decoration="none" transform="matrix(1 0 0 1 1581.73 1509)">âŠ•</text><path d="M5079.42 1261.39 5101.1 1311.94 5084.25 1319.16 5062.58 1268.61ZM5108.33 1328.78 5130 1379.33 5113.16 1386.56 5091.48 1336.01ZM5137.23 1396.18 5158.91 1446.73 5142.06 1453.96 5120.38 1403.41ZM5166.13 1463.58 5187.81 1514.13 5170.96 1521.35 5149.28 1470.8ZM5195.04 1530.98 5216.71 1581.52 5199.86 1588.75 5178.19 1538.2ZM5223.94 1598.37 5244.85 1647.14 5228 1654.37 5207.09 1605.6ZM5258.09 1631.49 5254.49 1692.88 5207.54 1653.17Z" fill="#000000" fill-rule="nonzero" fill-opacity="1"/><path d="M5066 1256.83 6059.54 1256.83 6059.54 1275.17 5066 1275.17ZM6050.37 1238.5 6105.37 1266 6050.37 1293.5Z" fill="#000000" fill-rule="nonzero" fill-opacity="1"/><path d="M7.17194-5.70886 409.102 499.228 394.758 510.646-7.17194 5.70886ZM417.737 480.639 430.475 540.797 374.706 514.892Z" fill="#000000" fill-rule="nonzero" fill-opacity="1" transform="matrix(-1 0 0 1 5071.47 1265)"/><text fill="#000000" fill-opacity="1" font-family="Cambria Math,Cambria Math_MSFontService,sans-serif" font-style="normal" font-variant="normal" font-weight="400" font-stretch="normal" font-size="128" text-anchor="start" direction="ltr" writing-mode="lr-tb" unicode-bidi="normal" text-decoration="none" transform="matrix(1 0 0 1 4759.38 1385)">ğœƒ</text><path d="M4934.09 1268.45C4942.93 1270.78 4949.72 1275.81 4954.46 1283.54 4959.2 1291.28 4961.57 1300.61 4961.57 1311.54 4961.57 1322.5 4959.2 1331.83 4954.48 1339.53 4949.76 1347.24 4942.96 1352.26 4934.09 1354.59L4933 1351.09C4940 1348.76 4945.2 1344.16 4948.6 1337.29 4952.01 1330.41 4953.71 1321.68 4953.71 1311.09 4953.71 1300.85 4952.01 1292.35 4948.62 1285.59 4945.23 1278.82 4939.98 1274.27 4932.87 1271.94ZM4873.47 1268.45 4874.7 1271.94C4867.61 1274.27 4862.37 1278.82 4858.96 1285.59 4855.56 1292.35 4853.85 1300.85 4853.85 1311.09 4853.85 1321.68 4855.56 1330.41 4858.96 1337.29 4862.37 1344.16 4867.57 1348.76 4874.56 1351.09L4873.47 1354.59C4864.6 1352.26 4857.8 1347.24 4853.08 1339.53 4848.36 1331.83 4846 1322.5 4846 1311.54 4846 1300.61 4848.37 1291.28 4853.1 1283.54 4857.84 1275.81 4864.63 1270.78 4873.47 1268.45Z" fill="#000000" fill-rule="evenodd" fill-opacity="1"/><text fill="#000000" fill-opacity="1" font-family="Cambria Math,Cambria Math_MSFontService,sans-serif" font-style="normal" font-variant="normal" font-weight="400" font-stretch="normal" font-size="93" text-anchor="start" direction="ltr" writing-mode="lr-tb" unicode-bidi="normal" text-decoration="none" transform="matrix(1 0 0 1 4876.71 1338)">1</text><text fill="#000000" fill-opacity="1" font-family="Cambria Math,Cambria Math_MSFontService,sans-serif" font-style="normal" font-variant="normal" font-weight="400" font-stretch="normal" font-size="128" text-anchor="start" direction="ltr" writing-mode="lr-tb" unicode-bidi="normal" text-decoration="none" transform="matrix(1 0 0 1 5101.12 1225)">ğœƒ</text><path d="M5275.83 1108.66C5284.67 1110.99 5291.46 1116.02 5296.2 1123.76 5300.93 1131.49 5303.3 1140.82 5303.3 1151.75 5303.3 1162.71 5300.94 1172.04 5296.22 1179.75 5291.5 1187.45 5284.7 1192.47 5275.83 1194.8L5274.74 1191.31C5281.73 1188.97 5286.93 1184.37 5290.34 1177.5 5293.74 1170.63 5295.45 1161.89 5295.45 1151.3 5295.45 1141.07 5293.75 1132.57 5290.36 1125.8 5286.97 1119.04 5281.72 1114.49 5274.6 1112.16ZM5215.21 1108.66 5216.44 1112.16C5209.35 1114.49 5204.11 1119.04 5200.7 1125.8 5197.29 1132.57 5195.59 1141.07 5195.59 1151.3 5195.59 1161.89 5197.29 1170.63 5200.7 1177.5 5204.11 1184.37 5209.31 1188.97 5216.3 1191.31L5215.21 1194.8C5206.34 1192.47 5199.54 1187.45 5194.82 1179.75 5190.1 1172.04 5187.74 1162.71 5187.74 1151.75 5187.74 1140.82 5190.1 1131.49 5194.84 1123.76 5199.58 1116.02 5206.37 1110.99 5215.21 1108.66Z" fill="#000000" fill-rule="evenodd" fill-opacity="1"/><text fill="#000000" fill-opacity="1" font-family="Cambria Math,Cambria Math_MSFontService,sans-serif" font-style="normal" font-variant="normal" font-weight="400" font-stretch="normal" font-size="93" text-anchor="start" direction="ltr" writing-mode="lr-tb" unicode-bidi="normal" text-decoration="none" transform="matrix(1 0 0 1 5218.45 1178)">2</text><text fill="#000000" fill-opacity="1" font-family="Cambria Math,Cambria Math_MSFontService,sans-serif" font-style="normal" font-variant="normal" font-weight="400" font-stretch="normal" font-size="128" text-anchor="start" direction="ltr" writing-mode="lr-tb" unicode-bidi="normal" text-decoration="none" transform="matrix(1 0 0 1 4998.17 1733)">ğœƒ</text><text fill="#000000" fill-opacity="1" font-family="Cambria Math,Cambria Math_MSFontService,sans-serif" font-style="normal" font-variant="normal" font-weight="400" font-stretch="normal" font-size="93" text-anchor="start" direction="ltr" writing-mode="lr-tb" unicode-bidi="normal" text-decoration="none" transform="matrix(1 0 0 1 5076.61 1686)">â‹†</text><path d="M5280.09 1698.37 5296.06 1691.93 5311.55 1685.9 5326.43 1680.08 5326.34 1680.12 5340.56 1674.33 5340.37 1674.41 5353.83 1668.47 5353.53 1668.6 5366.13 1662.31 5365.73 1662.53 5377.38 1655.71 5376.87 1656.04 5387.46 1648.5 5387.03 1648.84 5391.91 1644.75 5391.59 1645.02 5396.17 1640.68 5395.86 1641 5400.13 1636.39 5399.82 1636.75 5403.76 1631.84 5403.47 1632.24 5407.08 1627.01 5406.81 1627.44 5410.08 1621.87 5409.83 1622.32 5412.74 1616.39 5412.54 1616.85 5415.08 1610.54 5414.91 1611 5417.07 1604.27 5416.94 1604.72 5418.71 1597.56 5418.62 1598 5419.98 1590.38 5419.92 1590.79 5420.86 1582.69 5420.83 1583.08 5421.35 1574.48 5421.33 1574.83 5421.41 1565.7 5421.42 1566.03 5421.04 1556.35 5421.06 1556.64 5420.21 1546.39 5420.37 1547.37 5417.75 1536.01 5415.82 1524.97 5414.61 1514.4 5414.1 1504.29 5414.3 1494.61 5415.18 1485.38 5416.75 1476.57 5418.99 1468.18 5421.9 1460.21 5425.44 1452.67 5429.61 1445.55 5434.38 1438.86 5439.71 1432.58 5445.58 1426.71 5451.96 1421.22 5458.82 1416.11 5466.16 1411.35 5473.93 1406.92 5482.14 1402.81 5490.75 1398.98 5499.76 1395.43 5509.15 1392.12 5518.91 1389.06 5529.02 1386.2 5539.47 1383.55 5550.27 1381.07 5572.73 1376.61 5586.78 1374.37 5588.94 1387.95 5575.02 1390.17 5575.28 1390.12 5553.05 1394.54 5553.25 1394.49 5542.62 1396.93 5542.78 1396.89 5532.49 1399.51 5532.67 1399.46 5522.74 1402.26 5522.94 1402.2 5513.39 1405.21 5513.61 1405.13 5504.45 1408.35 5504.69 1408.26 5495.93 1411.72 5496.2 1411.61 5487.87 1415.31 5488.16 1415.17 5480.26 1419.13 5480.58 1418.96 5473.13 1423.2 5473.48 1422.99 5466.5 1427.52 5466.86 1427.27 5460.36 1432.11 5460.74 1431.81 5454.74 1436.96 5455.12 1436.61 5449.63 1442.1 5450.01 1441.69 5445.05 1447.53 5445.41 1447.07 5440.99 1453.28 5441.32 1452.77 5437.47 1459.35 5437.75 1458.8 5434.47 1465.78 5434.71 1465.21 5432.02 1472.6 5432.2 1472.02 5430.11 1479.83 5430.24 1479.26 5428.77 1487.51 5428.84 1486.96 5428.01 1495.67 5428.04 1495.15 5427.86 1504.32 5427.85 1503.84 5428.33 1513.49 5428.3 1513.05 5429.46 1523.2 5429.4 1522.8 5431.26 1533.46 5431.19 1533.1 5433.88 1544.77 5434.77 1555.67 5435.16 1565.65 5435.08 1575.12 5434.54 1584.1 5433.55 1592.59 5432.11 1600.64 5430.24 1608.25 5427.93 1615.44 5425.2 1622.22 5422.06 1628.61 5418.54 1634.62 5414.63 1640.26 5410.38 1645.55 5405.8 1650.5 5400.91 1655.14 5395.66 1659.55 5384.59 1667.42 5372.48 1674.51 5359.53 1680.98 5345.83 1687.03 5331.48 1692.87 5316.54 1698.71 5301.09 1704.73 5301.16 1704.7 5285.23 1711.12ZM5577.96 1361.8 5621.84 1375.99 5584.17 1402.58Z" fill="#7030A0" fill-rule="nonzero" fill-opacity="1"/><path d="M5241 1703.5C5241 1689.97 5252.19 1679 5266 1679 5279.81 1679 5291 1689.97 5291 1703.5 5291 1717.03 5279.81 1728 5266 1728 5252.19 1728 5241 1717.03 5241 1703.5Z" fill="#000000" fill-rule="evenodd" fill-opacity="1"/><path d="M5619 1375C5619 1361.19 5629.97 1350 5643.5 1350 5657.03 1350 5668 1361.19 5668 1375 5668 1388.81 5657.03 1400 5643.5 1400 5629.97 1400 5619 1388.81 5619 1375Z" fill="#7030A0" fill-rule="evenodd" fill-opacity="1"/><path d="M6112 1522.5C6112 1511.73 6120.95 1503 6132 1503 6143.05 1503 6152 1511.73 6152 1522.5 6152 1533.27 6143.05 1542 6132 1542 6120.95 1542 6112 1533.27 6112 1522.5Z" fill="#FF33CC" fill-rule="evenodd" fill-opacity="1"/><path d="M5803.5 1551.5C5803.5 1401.83 5949.23 1280.5 6129 1280.5 6308.77 1280.5 6454.5 1401.83 6454.5 1551.5 6454.5 1701.17 6308.77 1822.5 6129 1822.5 5949.23 1822.5 5803.5 1701.17 5803.5 1551.5Z" stroke="#FF33CC" stroke-width="20.625" stroke-linecap="square" stroke-linejoin="miter" stroke-miterlimit="8" stroke-dasharray="61.875 20.625" stroke-opacity="1" fill="#FF33CC" fill-rule="evenodd" fill-opacity="0.2"/><path d="M6181 1483.5C6181 1472.73 6189.95 1464 6201 1464 6212.05 1464 6221 1472.73 6221 1483.5 6221 1494.27 6212.05 1503 6201 1503 6189.95 1503 6181 1494.27 6181 1483.5Z" fill="#FF33CC" fill-rule="evenodd" fill-opacity="1"/><path d="M6040 1542C6040 1530.95 6048.95 1522 6060 1522 6071.05 1522 6080 1530.95 6080 1542 6080 1553.05 6071.05 1562 6060 1562 6048.95 1562 6040 1553.05 6040 1542Z" fill="#FF33CC" fill-rule="evenodd" fill-opacity="1"/><path d="M6227 1684C6227 1672.95 6235.95 1664 6247 1664 6258.05 1664 6267 1672.95 6267 1684 6267 1695.05 6258.05 1704 6247 1704 6235.95 1704 6227 1695.05 6227 1684Z" fill="#FF33CC" fill-rule="evenodd" fill-opacity="1"/><path d="M5982 1588.5C5982 1577.73 5990.95 1569 6002 1569 6013.05 1569 6022 1577.73 6022 1588.5 6022 1599.27 6013.05 1608 6002 1608 5990.95 1608 5982 1599.27 5982 1588.5Z" fill="#FF33CC" fill-rule="evenodd" fill-opacity="1"/><path d="M5868 1469.5C5868 1458.73 5877.18 1450 5888.5 1450 5899.82 1450 5909 1458.73 5909 1469.5 5909 1480.27 5899.82 1489 5888.5 1489 5877.18 1489 5868 1480.27 5868 1469.5Z" fill="#FF33CC" fill-rule="evenodd" fill-opacity="1"/><path d="M6074 1729.5C6074 1718.73 6082.95 1710 6094 1710 6105.05 1710 6114 1718.73 6114 1729.5 6114 1740.27 6105.05 1749 6094 1749 6082.95 1749 6074 1740.27 6074 1729.5Z" fill="#FF33CC" fill-rule="evenodd" fill-opacity="1"/><path d="M6148 1616.5C6148 1605.73 6157.18 1597 6168.5 1597 6179.82 1597 6189 1605.73 6189 1616.5 6189 1627.27 6179.82 1636 6168.5 1636 6157.18 1636 6148 1627.27 6148 1616.5Z" fill="#FF33CC" fill-rule="evenodd" fill-opacity="1"/><path d="M6233 1565.5C6233 1554.73 6242.18 1546 6253.5 1546 6264.82 1546 6274 1554.73 6274 1565.5 6274 1576.27 6264.82 1585 6253.5 1585 6242.18 1585 6233 1576.27 6233 1565.5Z" fill="#FF33CC" fill-rule="evenodd" fill-opacity="1"/><path d="M6005 1489.5C6005 1478.73 6014.18 1470 6025.5 1470 6036.82 1470 6046 1478.73 6046 1489.5 6046 1500.27 6036.82 1509 6025.5 1509 6014.18 1509 6005 1500.27 6005 1489.5Z" fill="#FF33CC" fill-rule="evenodd" fill-opacity="1"/><path d="M5961 1533.5C5961 1522.73 5969.95 1514 5981 1514 5992.05 1514 6001 1522.73 6001 1533.5 6001 1544.27 5992.05 1553 5981 1553 5969.95 1553 5961 1544.27 5961 1533.5Z" fill="#FF33CC" fill-rule="evenodd" fill-opacity="1"/><path d="M5942 1710.5C5942 1699.73 5950.95 1691 5962 1691 5973.05 1691 5982 1699.73 5982 1710.5 5982 1721.27 5973.05 1730 5962 1730 5950.95 1730 5942 1721.27 5942 1710.5Z" fill="#FF33CC" fill-rule="evenodd" fill-opacity="1"/><path d="M6038 1656C6038 1644.95 6046.95 1636 6058 1636 6069.05 1636 6078 1644.95 6078 1656 6078 1667.05 6069.05 1676 6058 1676 6046.95 1676 6038 1667.05 6038 1656Z" fill="#FF33CC" fill-rule="evenodd" fill-opacity="1"/><path d="M6091 1395.5C6091 1384.73 6099.95 1376 6111 1376 6122.05 1376 6131 1384.73 6131 1395.5 6131 1406.27 6122.05 1415 6111 1415 6099.95 1415 6091 1406.27 6091 1395.5Z" fill="#FF33CC" fill-rule="evenodd" fill-opacity="1"/><path d="M6335 1637.5C6335 1626.73 6343.95 1618 6355 1618 6366.05 1618 6375 1626.73 6375 1637.5 6375 1648.27 6366.05 1657 6355 1657 6343.95 1657 6335 1648.27 6335 1637.5Z" fill="#FF33CC" fill-rule="evenodd" fill-opacity="1"/><path d="M6163 1399.5C6163 1388.73 6171.95 1380 6183 1380 6194.05 1380 6203 1388.73 6203 1399.5 6203 1410.27 6194.05 1419 6183 1419 6171.95 1419 6163 1410.27 6163 1399.5Z" fill="#FF33CC" fill-rule="evenodd" fill-opacity="1"/><path d="M5923 1623.5C5923 1612.73 5931.95 1604 5943 1604 5954.05 1604 5963 1612.73 5963 1623.5 5963 1634.27 5954.05 1643 5943 1643 5931.95 1643 5923 1634.27 5923 1623.5Z" fill="#FF33CC" fill-rule="evenodd" fill-opacity="1"/><path d="M6085 1597.5C6085 1586.73 6093.95 1578 6105 1578 6116.05 1578 6125 1586.73 6125 1597.5 6125 1608.27 6116.05 1617 6105 1617 6093.95 1617 6085 1608.27 6085 1597.5Z" fill="#FF33CC" fill-rule="evenodd" fill-opacity="1"/><path d="M6067 1478.5C6067 1467.73 6075.95 1459 6087 1459 6098.05 1459 6107 1467.73 6107 1478.5 6107 1489.27 6098.05 1498 6087 1498 6075.95 1498 6067 1489.27 6067 1478.5Z" fill="#FF33CC" fill-rule="evenodd" fill-opacity="1"/><path d="M6132 1454.5C6132 1443.73 6140.95 1435 6152 1435 6163.05 1435 6172 1443.73 6172 1454.5 6172 1465.27 6163.05 1474 6152 1474 6140.95 1474 6132 1465.27 6132 1454.5Z" fill="#FF33CC" fill-rule="evenodd" fill-opacity="1"/><path d="M6098 1663.5C6098 1652.73 6106.95 1644 6118 1644 6129.05 1644 6138 1652.73 6138 1663.5 6138 1674.27 6129.05 1683 6118 1683 6106.95 1683 6098 1674.27 6098 1663.5Z" fill="#FF33CC" fill-rule="evenodd" fill-opacity="1"/><path d="M6212 1627C6212 1615.95 6220.95 1607 6232 1607 6243.05 1607 6252 1615.95 6252 1627 6252 1638.05 6243.05 1647 6232 1647 6220.95 1647 6212 1638.05 6212 1627Z" fill="#FF33CC" fill-rule="evenodd" fill-opacity="1"/><path d="M6265 1634.5C6265 1623.73 6273.95 1615 6285 1615 6296.05 1615 6305 1623.73 6305 1634.5 6305 1645.27 6296.05 1654 6285 1654 6273.95 1654 6265 1645.27 6265 1634.5Z" fill="#FF33CC" fill-rule="evenodd" fill-opacity="1"/><path d="M6181 1551.5C6181 1540.73 6189.95 1532 6201 1532 6212.05 1532 6221 1540.73 6221 1551.5 6221 1562.27 6212.05 1571 6201 1571 6189.95 1571 6181 1562.27 6181 1551.5Z" fill="#FF33CC" fill-rule="evenodd" fill-opacity="1"/><path d="M6230 1435.5C6230 1424.73 6238.95 1416 6250 1416 6261.05 1416 6270 1424.73 6270 1435.5 6270 1446.27 6261.05 1455 6250 1455 6238.95 1455 6230 1446.27 6230 1435.5Z" fill="#FF33CC" fill-rule="evenodd" fill-opacity="1"/><path d="M6296 1529.5C6296 1518.73 6305.18 1510 6316.5 1510 6327.82 1510 6337 1518.73 6337 1529.5 6337 1540.27 6327.82 1549 6316.5 1549 6305.18 1549 6296 1540.27 6296 1529.5Z" fill="#FF33CC" fill-rule="evenodd" fill-opacity="1"/><path d="M6379 1544.5C6379 1533.73 6388.18 1525 6399.5 1525 6410.82 1525 6420 1533.73 6420 1544.5 6420 1555.27 6410.82 1564 6399.5 1564 6388.18 1564 6379 1555.27 6379 1544.5Z" fill="#FF33CC" fill-rule="evenodd" fill-opacity="1"/><path d="M6319 1588.5C6319 1577.73 6327.95 1569 6339 1569 6350.05 1569 6359 1577.73 6359 1588.5 6359 1599.27 6350.05 1608 6339 1608 6327.95 1608 6319 1599.27 6319 1588.5Z" fill="#FF33CC" fill-rule="evenodd" fill-opacity="1"/><path d="M6163 1695.5C6163 1684.73 6172.18 1676 6183.5 1676 6194.82 1676 6204 1684.73 6204 1695.5 6204 1706.27 6194.82 1715 6183.5 1715 6172.18 1715 6163 1706.27 6163 1695.5Z" fill="#FF33CC" fill-rule="evenodd" fill-opacity="1"/><path d="M5925 1465.5C5925 1454.73 5934.18 1446 5945.5 1446 5956.82 1446 5966 1454.73 5966 1465.5 5966 1476.27 5956.82 1485 5945.5 1485 5934.18 1485 5925 1476.27 5925 1465.5Z" fill="#FF33CC" fill-rule="evenodd" fill-opacity="1"/><path d="M5974 1366.5C5974 1355.73 5982.95 1347 5994 1347 6005.05 1347 6014 1355.73 6014 1366.5 6014 1377.27 6005.05 1386 5994 1386 5982.95 1386 5974 1377.27 5974 1366.5Z" fill="#FF33CC" fill-rule="evenodd" fill-opacity="1"/><path d="M6035 1389.5C6035 1378.73 6043.95 1370 6055 1370 6066.05 1370 6075 1378.73 6075 1389.5 6075 1400.27 6066.05 1409 6055 1409 6043.95 1409 6035 1400.27 6035 1389.5Z" fill="#FF33CC" fill-rule="evenodd" fill-opacity="1"/><path d="M5888 1545.5C5888 1534.73 5896.95 1526 5908 1526 5919.05 1526 5928 1534.73 5928 1545.5 5928 1556.27 5919.05 1565 5908 1565 5896.95 1565 5888 1556.27 5888 1545.5Z" fill="#FF33CC" fill-rule="evenodd" fill-opacity="1"/><path d="M5855 1617.5C5855 1606.73 5864.18 1598 5875.5 1598 5886.82 1598 5896 1606.73 5896 1617.5 5896 1628.27 5886.82 1637 5875.5 1637 5864.18 1637 5855 1628.27 5855 1617.5Z" fill="#FF33CC" fill-rule="evenodd" fill-opacity="1"/><path d="M5977 1655.5C5977 1644.73 5985.95 1636 5997 1636 6008.05 1636 6017 1644.73 6017 1655.5 6017 1666.27 6008.05 1675 5997 1675 5985.95 1675 5977 1666.27 5977 1655.5Z" fill="#FF33CC" fill-rule="evenodd" fill-opacity="1"/><path d="M6007 1714.5C6007 1703.73 6015.95 1695 6027 1695 6038.05 1695 6047 1703.73 6047 1714.5 6047 1725.27 6038.05 1734 6027 1734 6015.95 1734 6007 1725.27 6007 1714.5Z" fill="#FF33CC" fill-rule="evenodd" fill-opacity="1"/><path d="M6227 1749.5C6227 1738.73 6235.95 1730 6247 1730 6258.05 1730 6267 1738.73 6267 1749.5 6267 1760.27 6258.05 1769 6247 1769 6235.95 1769 6227 1760.27 6227 1749.5Z" fill="#FF33CC" fill-rule="evenodd" fill-opacity="1"/><path d="M6123 1342C6123 1330.95 6132.18 1322 6143.5 1322 6154.82 1322 6164 1330.95 6164 1342 6164 1353.05 6154.82 1362 6143.5 1362 6132.18 1362 6123 1353.05 6123 1342Z" fill="#FF33CC" fill-rule="evenodd" fill-opacity="1"/><path d="M6302 1396C6302 1384.95 6310.95 1376 6322 1376 6333.05 1376 6342 1384.95 6342 1396 6342 1407.05 6333.05 1416 6322 1416 6310.95 1416 6302 1407.05 6302 1396Z" fill="#FF33CC" fill-rule="evenodd" fill-opacity="1"/><path d="M6343 1469.5C6343 1458.73 6351.95 1450 6363 1450 6374.05 1450 6383 1458.73 6383 1469.5 6383 1480.27 6374.05 1489 6363 1489 6351.95 1489 6343 1480.27 6343 1469.5Z" fill="#FF33CC" fill-rule="evenodd" fill-opacity="1"/><path d="M6183 1336.5C6183 1325.73 6192.18 1317 6203.5 1317 6214.82 1317 6224 1325.73 6224 1336.5 6224 1347.27 6214.82 1356 6203.5 1356 6192.18 1356 6183 1347.27 6183 1336.5Z" fill="#FF33CC" fill-rule="evenodd" fill-opacity="1"/><path d="M6294 1706.5C6294 1695.73 6302.95 1687 6314 1687 6325.05 1687 6334 1695.73 6334 1706.5 6334 1717.27 6325.05 1726 6314 1726 6302.95 1726 6294 1717.27 6294 1706.5Z" fill="#FF33CC" fill-rule="evenodd" fill-opacity="1"/><path d="M6155 1757C6155 1745.95 6163.95 1737 6175 1737 6186.05 1737 6195 1745.95 6195 1757 6195 1768.05 6186.05 1777 6175 1777 6163.95 1777 6155 1768.05 6155 1757Z" fill="#FF33CC" fill-rule="evenodd" fill-opacity="1"/><path d="M6078 1786.5C6078 1775.73 6086.95 1767 6098 1767 6109.05 1767 6118 1775.73 6118 1786.5 6118 1797.27 6109.05 1806 6098 1806 6086.95 1806 6078 1797.27 6078 1786.5Z" fill="#FF33CC" fill-rule="evenodd" fill-opacity="1"/><path d="M5909 1410.5C5909 1399.73 5917.95 1391 5929 1391 5940.05 1391 5949 1399.73 5949 1410.5 5949 1421.27 5940.05 1430 5929 1430 5917.95 1430 5909 1421.27 5909 1410.5Z" fill="#FF33CC" fill-rule="evenodd" fill-opacity="1"/><path d="M6236 1496.5C6236 1485.73 6245.18 1477 6256.5 1477 6267.82 1477 6277 1485.73 6277 1496.5 6277 1507.27 6267.82 1516 6256.5 1516 6245.18 1516 6236 1507.27 6236 1496.5Z" fill="#FF33CC" fill-rule="evenodd" fill-opacity="1"/><path d="M5991 1434.5C5991 1423.73 5999.95 1415 6011 1415 6022.05 1415 6031 1423.73 6031 1434.5 6031 1445.27 6022.05 1454 6011 1454 5999.95 1454 5991 1445.27 5991 1434.5Z" fill="#FF33CC" fill-rule="evenodd" fill-opacity="1"/><path d="M5702.64 1380.39 5803.01 1417.22 5798.27 1430.12 5697.9 1393.3ZM5699.62 1408.57 5668 1375 5713.83 1369.85ZM5801.29 1401.94 5832.91 1435.51 5787.08 1440.66Z" fill="#FF0000" fill-rule="nonzero" fill-opacity="1"/><text fill="#000000" fill-opacity="1" font-family="Cambria Math,Cambria Math_MSFontService,sans-serif" font-style="normal" font-variant="normal" font-weight="400" font-stretch="normal" font-size="128" text-anchor="start" direction="ltr" writing-mode="lr-tb" unicode-bidi="normal" text-decoration="none" transform="matrix(1 0 0 1 4421.81 380)">ğœƒ</text><path d="M4596.52 263.606C4605.36 265.937 4612.15 270.97 4616.89 278.705 4621.62 286.44 4623.99 295.772 4623.99 306.701 4623.99 317.66 4621.63 326.991 4616.91 334.696 4612.19 342.401 4605.39 347.418 4596.52 349.749L4595.43 346.253C4602.42 343.922 4607.62 339.32 4611.03 332.448 4614.43 325.576 4616.14 316.842 4616.14 306.247 4616.14 296.014 4614.44 287.515 4611.05 280.749 4607.66 273.983 4602.41 269.434 4595.29 267.103ZM4535.9 263.606 4537.12 267.103C4530.04 269.434 4524.8 273.983 4521.39 280.749 4517.98 287.515 4516.28 296.014 4516.28 306.247 4516.28 316.842 4517.98 325.576 4521.39 332.448 4524.8 339.32 4530 343.922 4536.99 346.253L4535.9 349.749C4527.03 347.418 4520.23 342.401 4515.51 334.696 4510.79 326.991 4508.43 317.66 4508.43 306.701 4508.43 295.772 4510.79 286.44 4515.53 278.705 4520.27 270.97 4527.06 265.937 4535.9 263.606Z" fill="#000000" fill-rule="evenodd" fill-opacity="1"/><text fill="#000000" fill-opacity="1" font-family="Cambria Math,Cambria Math_MSFontService,sans-serif" font-style="normal" font-variant="normal" font-weight="400" font-stretch="normal" font-size="93" text-anchor="start" direction="ltr" writing-mode="lr-tb" unicode-bidi="normal" text-decoration="none" transform="matrix(1 0 0 1 4539.14 333)">1</text><path d="M0 0 954.733 1.47028" stroke="#C5E0B4" stroke-width="20.625" stroke-linecap="butt" stroke-linejoin="miter" stroke-miterlimit="8" stroke-opacity="1" fill="none" fill-rule="evenodd" transform="matrix(1 0 0 -1 5052.5 420.97)"/><path d="M4.95698e-06-9.16667 621.545-9.16633 621.545 9.167-4.95698e-06 9.16667ZM612.378-27.4997 667.378 0.000360892 612.378 27.5003Z" fill="#000000" fill-rule="nonzero" fill-opacity="1" transform="matrix(1 0 0 -1 4404 418)"/><path d="M5393 90.9999C5393 77.1928 5403.97 66 5417.5 66 5431.03 66 5442 77.1928 5442 90.9999 5442 104.807 5431.03 116 5417.5 116 5403.97 116 5393 104.807 5393 90.9999Z" fill="#7030A0" fill-rule="evenodd" fill-opacity="1"/><path d="M6113 296.5C6113 285.73 6121.95 277 6133 277 6144.05 277 6153 285.73 6153 296.5 6153 307.269 6144.05 316 6133 316 6121.95 316 6113 307.269 6113 296.5Z" fill="#FF33CC" fill-rule="evenodd" fill-opacity="1"/><path d="M5804.5 325.5C5804.5 175.831 5950.23 54.5002 6130 54.5002 6309.77 54.5002 6455.5 175.831 6455.5 325.5 6455.5 475.169 6309.77 596.5 6130 596.5 5950.23 596.5 5804.5 475.169 5804.5 325.5Z" stroke="#FF33CC" stroke-width="20.625" stroke-linecap="square" stroke-linejoin="miter" stroke-miterlimit="8" stroke-dasharray="61.875 20.625" stroke-opacity="1" fill="#FF33CC" fill-rule="evenodd" fill-opacity="0.2"/><path d="M6182 257.5C6182 246.73 6190.95 238 6202 238 6213.05 238 6222 246.73 6222 257.5 6222 268.27 6213.05 277 6202 277 6190.95 277 6182 268.27 6182 257.5Z" fill="#FF33CC" fill-rule="evenodd" fill-opacity="1"/><path d="M6041 316.5C6041 305.73 6049.95 297 6061 297 6072.05 297 6081 305.73 6081 316.5 6081 327.269 6072.05 336 6061 336 6049.95 336 6041 327.269 6041 316.5Z" fill="#FF33CC" fill-rule="evenodd" fill-opacity="1"/><path d="M6228 458.5C6228 447.73 6236.95 439 6248 439 6259.05 439 6268 447.73 6268 458.5 6268 469.27 6259.05 478 6248 478 6236.95 478 6228 469.27 6228 458.5Z" fill="#FF33CC" fill-rule="evenodd" fill-opacity="1"/><path d="M5983 362.5C5983 351.73 5991.95 343 6003 343 6014.05 343 6023 351.73 6023 362.5 6023 373.269 6014.05 382 6003 382 5991.95 382 5983 373.269 5983 362.5Z" fill="#FF33CC" fill-rule="evenodd" fill-opacity="1"/><path d="M5869 244C5869 232.954 5877.95 224 5889 224 5900.05 224 5909 232.954 5909 244 5909 255.046 5900.05 264 5889 264 5877.95 264 5869 255.046 5869 244Z" fill="#FF33CC" fill-rule="evenodd" fill-opacity="1"/><path d="M6075 503.5C6075 492.73 6083.95 484 6095 484 6106.05 484 6115 492.73 6115 503.5 6115 514.269 6106.05 523 6095 523 6083.95 523 6075 514.269 6075 503.5Z" fill="#FF33CC" fill-rule="evenodd" fill-opacity="1"/><path d="M6149 391.5C6149 380.73 6158.18 372 6169.5 372 6180.82 372 6190 380.73 6190 391.5 6190 402.27 6180.82 411 6169.5 411 6158.18 411 6149 402.27 6149 391.5Z" fill="#FF33CC" fill-rule="evenodd" fill-opacity="1"/><path d="M6234 340C6234 328.954 6243.18 320 6254.5 320 6265.82 320 6275 328.954 6275 340 6275 351.046 6265.82 360 6254.5 360 6243.18 360 6234 351.046 6234 340Z" fill="#FF33CC" fill-rule="evenodd" fill-opacity="1"/><path d="M6006 264C6006 252.954 6015.18 244 6026.5 244 6037.82 244 6047 252.954 6047 264 6047 275.046 6037.82 284 6026.5 284 6015.18 284 6006 275.046 6006 264Z" fill="#FF33CC" fill-rule="evenodd" fill-opacity="1"/><path d="M5962 308C5962 296.954 5970.95 288 5982 288 5993.05 288 6002 296.954 6002 308 6002 319.046 5993.05 328 5982 328 5970.95 328 5962 319.046 5962 308Z" fill="#FF33CC" fill-rule="evenodd" fill-opacity="1"/><path d="M5943 484.5C5943 473.73 5951.95 465 5963 465 5974.05 465 5983 473.73 5983 484.5 5983 495.27 5974.05 504 5963 504 5951.95 504 5943 495.27 5943 484.5Z" fill="#FF33CC" fill-rule="evenodd" fill-opacity="1"/><path d="M6039 430.5C6039 419.731 6047.95 411 6059 411 6070.05 411 6079 419.731 6079 430.5 6079 441.27 6070.05 450 6059 450 6047.95 450 6039 441.27 6039 430.5Z" fill="#FF33CC" fill-rule="evenodd" fill-opacity="1"/><path d="M6092 169.5C6092 158.73 6100.95 150 6112 150 6123.05 150 6132 158.73 6132 169.5 6132 180.27 6123.05 189 6112 189 6100.95 189 6092 180.27 6092 169.5Z" fill="#FF33CC" fill-rule="evenodd" fill-opacity="1"/><path d="M6336 411.5C6336 400.73 6344.95 392 6356 392 6367.05 392 6376 400.73 6376 411.5 6376 422.27 6367.05 431 6356 431 6344.95 431 6336 422.27 6336 411.5Z" fill="#FF33CC" fill-rule="evenodd" fill-opacity="1"/><path d="M6164 174C6164 162.954 6172.95 154 6184 154 6195.05 154 6204 162.954 6204 174 6204 185.046 6195.05 194 6184 194 6172.95 194 6164 185.046 6164 174Z" fill="#FF33CC" fill-rule="evenodd" fill-opacity="1"/><path d="M5924 397.5C5924 386.731 5932.95 378 5944 378 5955.05 378 5964 386.731 5964 397.5 5964 408.27 5955.05 417 5944 417 5932.95 417 5924 408.27 5924 397.5Z" fill="#FF33CC" fill-rule="evenodd" fill-opacity="1"/><path d="M6086 371.5C6086 360.73 6094.95 352 6106 352 6117.05 352 6126 360.73 6126 371.5 6126 382.269 6117.05 391 6106 391 6094.95 391 6086 382.269 6086 371.5Z" fill="#FF33CC" fill-rule="evenodd" fill-opacity="1"/><path d="M6068 253C6068 241.954 6076.95 233 6088 233 6099.05 233 6108 241.954 6108 253 6108 264.046 6099.05 273 6088 273 6076.95 273 6068 264.046 6068 253Z" fill="#FF33CC" fill-rule="evenodd" fill-opacity="1"/><path d="M6133 228.5C6133 217.73 6141.95 209 6153 209 6164.05 209 6173 217.73 6173 228.5 6173 239.269 6164.05 248 6153 248 6141.95 248 6133 239.269 6133 228.5Z" fill="#FF33CC" fill-rule="evenodd" fill-opacity="1"/><path d="M6099 438.5C6099 427.73 6107.95 419 6119 419 6130.05 419 6139 427.73 6139 438.5 6139 449.269 6130.05 458 6119 458 6107.95 458 6099 449.269 6099 438.5Z" fill="#FF33CC" fill-rule="evenodd" fill-opacity="1"/><path d="M6213 401.5C6213 390.73 6221.95 382 6233 382 6244.05 382 6253 390.73 6253 401.5 6253 412.27 6244.05 421 6233 421 6221.95 421 6213 412.27 6213 401.5Z" fill="#FF33CC" fill-rule="evenodd" fill-opacity="1"/><path d="M6266 409C6266 397.954 6274.95 389 6286 389 6297.05 389 6306 397.954 6306 409 6306 420.046 6297.05 429 6286 429 6274.95 429 6266 420.046 6266 409Z" fill="#FF33CC" fill-rule="evenodd" fill-opacity="1"/><path d="M6182 326C6182 314.954 6190.95 306 6202 306 6213.05 306 6222 314.954 6222 326 6222 337.046 6213.05 346 6202 346 6190.95 346 6182 337.046 6182 326Z" fill="#FF33CC" fill-rule="evenodd" fill-opacity="1"/><path d="M6231 209.5C6231 198.73 6239.95 190 6251 190 6262.05 190 6271 198.73 6271 209.5 6271 220.27 6262.05 229 6251 229 6239.95 229 6231 220.27 6231 209.5Z" fill="#FF33CC" fill-rule="evenodd" fill-opacity="1"/><path d="M6297 303.5C6297 292.73 6305.95 284 6317 284 6328.05 284 6337 292.73 6337 303.5 6337 314.27 6328.05 323 6317 323 6305.95 323 6297 314.27 6297 303.5Z" fill="#FF33CC" fill-rule="evenodd" fill-opacity="1"/><path d="M6380 318.5C6380 307.73 6389.18 299 6400.5 299 6411.82 299 6421 307.73 6421 318.5 6421 329.269 6411.82 338 6400.5 338 6389.18 338 6380 329.269 6380 318.5Z" fill="#FF33CC" fill-rule="evenodd" fill-opacity="1"/><path d="M6320 362.5C6320 351.73 6328.95 343 6340 343 6351.05 343 6360 351.73 6360 362.5 6360 373.269 6351.05 382 6340 382 6328.95 382 6320 373.269 6320 362.5Z" fill="#FF33CC" fill-rule="evenodd" fill-opacity="1"/><path d="M6164 469.5C6164 458.73 6172.95 450 6184 450 6195.05 450 6204 458.73 6204 469.5 6204 480.27 6195.05 489 6184 489 6172.95 489 6164 480.27 6164 469.5Z" fill="#FF33CC" fill-rule="evenodd" fill-opacity="1"/><path d="M5926 239.5C5926 228.73 5935.18 220 5946.5 220 5957.82 220 5967 228.73 5967 239.5 5967 250.269 5957.82 259 5946.5 259 5935.18 259 5926 250.269 5926 239.5Z" fill="#FF33CC" fill-rule="evenodd" fill-opacity="1"/><path d="M5975 140.5C5975 129.73 5983.95 121 5995 121 6006.05 121 6015 129.73 6015 140.5 6015 151.269 6006.05 160 5995 160 5983.95 160 5975 151.269 5975 140.5Z" fill="#FF33CC" fill-rule="evenodd" fill-opacity="1"/><path d="M6036 163.5C6036 152.73 6044.95 144 6056 144 6067.05 144 6076 152.73 6076 163.5 6076 174.269 6067.05 183 6056 183 6044.95 183 6036 174.269 6036 163.5Z" fill="#FF33CC" fill-rule="evenodd" fill-opacity="1"/><path d="M5889 319.5C5889 308.73 5897.95 300 5909 300 5920.05 300 5929 308.73 5929 319.5 5929 330.27 5920.05 339 5909 339 5897.95 339 5889 330.27 5889 319.5Z" fill="#FF33CC" fill-rule="evenodd" fill-opacity="1"/><path d="M5856 391.5C5856 380.73 5864.95 372 5876 372 5887.05 372 5896 380.73 5896 391.5 5896 402.27 5887.05 411 5876 411 5864.95 411 5856 402.27 5856 391.5Z" fill="#FF33CC" fill-rule="evenodd" fill-opacity="1"/><path d="M5977 430.5C5977 419.731 5986.18 411 5997.5 411 6008.82 411 6018 419.731 6018 430.5 6018 441.27 6008.82 450 5997.5 450 5986.18 450 5977 441.27 5977 430.5Z" fill="#FF33CC" fill-rule="evenodd" fill-opacity="1"/><path d="M6008 489C6008 477.954 6016.95 469 6028 469 6039.05 469 6048 477.954 6048 489 6048 500.046 6039.05 509 6028 509 6016.95 509 6008 500.046 6008 489Z" fill="#FF33CC" fill-rule="evenodd" fill-opacity="1"/><path d="M6228 524.5C6228 513.73 6236.95 505 6248 505 6259.05 505 6268 513.73 6268 524.5 6268 535.27 6259.05 544 6248 544 6236.95 544 6228 535.27 6228 524.5Z" fill="#FF33CC" fill-rule="evenodd" fill-opacity="1"/><path d="M6124 116.5C6124 105.73 6132.95 96.9999 6144 96.9999 6155.05 96.9999 6164 105.73 6164 116.5 6164 127.27 6155.05 136 6144 136 6132.95 136 6124 127.27 6124 116.5Z" fill="#FF33CC" fill-rule="evenodd" fill-opacity="1"/><path d="M6303 170.5C6303 159.73 6311.95 151 6323 151 6334.05 151 6343 159.73 6343 170.5 6343 181.27 6334.05 190 6323 190 6311.95 190 6303 181.27 6303 170.5Z" fill="#FF33CC" fill-rule="evenodd" fill-opacity="1"/><path d="M6344 244C6344 232.954 6352.95 224 6364 224 6375.05 224 6384 232.954 6384 244 6384 255.046 6375.05 264 6364 264 6352.95 264 6344 255.046 6344 244Z" fill="#FF33CC" fill-rule="evenodd" fill-opacity="1"/><path d="M6184 111C6184 99.9544 6193.18 91.0001 6204.5 91.0001 6215.82 91.0001 6225 99.9544 6225 111 6225 122.046 6215.82 131 6204.5 131 6193.18 131 6184 122.046 6184 111Z" fill="#FF33CC" fill-rule="evenodd" fill-opacity="1"/><path d="M6294 480.5C6294 469.73 6303.18 461 6314.5 461 6325.82 461 6335 469.73 6335 480.5 6335 491.27 6325.82 500 6314.5 500 6303.18 500 6294 491.27 6294 480.5Z" fill="#FF33CC" fill-rule="evenodd" fill-opacity="1"/><path d="M6156 531.5C6156 520.73 6164.95 512 6176 512 6187.05 512 6196 520.73 6196 531.5 6196 542.27 6187.05 551 6176 551 6164.95 551 6156 542.27 6156 531.5Z" fill="#FF33CC" fill-rule="evenodd" fill-opacity="1"/><path d="M6079 560.5C6079 549.73 6087.95 541 6099 541 6110.05 541 6119 549.73 6119 560.5 6119 571.269 6110.05 580 6099 580 6087.95 580 6079 571.269 6079 560.5Z" fill="#FF33CC" fill-rule="evenodd" fill-opacity="1"/><path d="M5910 184.5C5910 173.73 5918.95 165 5930 165 5941.05 165 5950 173.73 5950 184.5 5950 195.269 5941.05 204 5930 204 5918.95 204 5910 195.269 5910 184.5Z" fill="#FF33CC" fill-rule="evenodd" fill-opacity="1"/><path d="M6237 271C6237 259.954 6246.18 251 6257.5 251 6268.82 251 6278 259.954 6278 271 6278 282.046 6268.82 291 6257.5 291 6246.18 291 6237 282.046 6237 271Z" fill="#FF33CC" fill-rule="evenodd" fill-opacity="1"/><path d="M5991 208.5C5991 197.73 6000.18 189 6011.5 189 6022.82 189 6032 197.73 6032 208.5 6032 219.269 6022.82 228 6011.5 228 6000.18 228 5991 219.269 5991 208.5Z" fill="#FF33CC" fill-rule="evenodd" fill-opacity="1"/><path d="M4108 38.0002 4108 2032.81" stroke="#000000" stroke-width="16.0417" stroke-linecap="butt" stroke-linejoin="miter" stroke-miterlimit="8" stroke-opacity="1" fill="none" fill-rule="evenodd"/><path d="M5476.71 95.9408 5785.94 204.911 5781.37 217.879 5472.14 108.909ZM5474.05 124.162 5442 91.0001 5487.76 85.2573ZM5784.02 189.658 5816.07 222.82 5770.31 228.563Z" fill="#FF0000" fill-rule="nonzero" fill-opacity="1"/><path d="M111.5 963.5 4061.11 963.5" stroke="#000000" stroke-width="20.625" stroke-linecap="butt" stroke-linejoin="miter" stroke-miterlimit="8" stroke-dasharray="20.625 20.625" stroke-opacity="1" fill="none" fill-rule="evenodd"/><text fill="#000000" fill-opacity="1" font-family="Times New Roman,Times New Roman_MSFontService,sans-serif" font-style="normal" font-variant="normal" font-weight="700" font-stretch="normal" font-size="110" text-anchor="start" direction="ltr" writing-mode="lr-tb" unicode-bidi="normal" text-decoration="none" transform="matrix(1 0 0 1 1303.56 2033)">(a) The Process of XB</text><text fill="#000000" fill-opacity="1" font-family="Times New Roman,Times New Roman_MSFontService,sans-serif" font-style="normal" font-variant="normal" font-weight="700" font-stretch="normal" font-size="110" text-anchor="start" direction="ltr" writing-mode="lr-tb" unicode-bidi="normal" text-decoration="none" transform="matrix(1 0 0 1 2319.94 2033)">-</text><text fill="#000000" fill-opacity="1" font-family="Times New Roman,Times New Roman_MSFontService,sans-serif" font-style="normal" font-variant="normal" font-weight="700" font-stretch="normal" font-size="110" text-anchor="start" direction="ltr" writing-mode="lr-tb" unicode-bidi="normal" text-decoration="none" transform="matrix(1 0 0 1 2356.61 2033)">MAML</text><text fill="#000000" fill-opacity="1" font-family="Times New Roman,Times New Roman_MSFontService,sans-serif" font-style="normal" font-variant="normal" font-weight="700" font-stretch="normal" font-size="110" text-anchor="start" direction="ltr" writing-mode="lr-tb" unicode-bidi="normal" text-decoration="none" transform="matrix(1 0 0 1 4552.74 2031)">(b) </text><text fill="#000000" fill-opacity="1" font-family="Times New Roman,Times New Roman_MSFontService,sans-serif" font-style="normal" font-variant="normal" font-weight="700" font-stretch="normal" font-size="110" text-anchor="start" direction="ltr" writing-mode="lr-tb" unicode-bidi="normal" text-decoration="none" transform="matrix(1 0 0 1 4712.88 2031)">Visual Representation of the XB</text><text fill="#000000" fill-opacity="1" font-family="Times New Roman,Times New Roman_MSFontService,sans-serif" font-style="normal" font-variant="normal" font-weight="700" font-stretch="normal" font-size="110" text-anchor="start" direction="ltr" writing-mode="lr-tb" unicode-bidi="normal" text-decoration="none" transform="matrix(1 0 0 1 6222.75 2031)">-</text><text fill="#000000" fill-opacity="1" font-family="Times New Roman,Times New Roman_MSFontService,sans-serif" font-style="normal" font-variant="normal" font-weight="700" font-stretch="normal" font-size="110" text-anchor="start" direction="ltr" writing-mode="lr-tb" unicode-bidi="normal" text-decoration="none" transform="matrix(1 0 0 1 6259.41 2031)">MAML</text><path d="M5073.89 416.306 5088.42 409.355 5102.51 402.806 5116.04 396.506 5115.95 396.547 5128.89 390.303 5128.72 390.39 5140.99 384.032 5140.72 384.18 5152.24 377.535 5151.87 377.762 5162.58 370.657 5162.12 370.988 5171.93 363.251 5171.41 363.706 5180.24 355.165 5179.84 355.593 5183.86 350.967 5183.6 351.294 5187.35 346.402 5187.1 346.758 5190.58 341.58 5190.34 341.959 5193.52 336.472 5193.31 336.868 5196.2 331.05 5196.01 331.456 5198.59 325.286 5198.43 325.693 5200.69 319.149 5200.57 319.549 5202.5 312.611 5202.4 312.998 5203.99 305.643 5203.92 306.013 5205.17 298.22 5205.12 298.569 5206.01 290.315 5205.98 290.641 5206.51 281.907 5206.5 282.208 5206.64 272.971 5206.64 273.247 5206.41 263.486 5206.49 264.43 5204.73 253.684 5203.57 243.214 5203.02 233.166 5203.07 223.527 5203.72 214.288 5204.97 205.439 5206.79 196.975 5209.19 188.891 5212.15 181.185 5215.66 173.854 5219.69 166.895 5224.23 160.304 5229.25 154.073 5234.74 148.193 5240.66 142.652 5247.01 137.434 5253.77 132.523 5260.9 127.903 5268.41 123.556 5276.27 119.465 5284.47 115.611 5293.01 111.98 5301.85 108.553 5311.04 105.302 5330.16 99.3468 5350.43 93.9428 5359.99 91.8116 5362.98 105.232 5353.57 107.332 5353.84 107.265 5333.84 112.596 5334.12 112.517 5315.26 118.391 5315.51 118.308 5306.53 121.482 5306.72 121.411 5298.08 124.761 5298.29 124.675 5289.98 128.213 5290.21 128.11 5282.24 131.85 5282.5 131.726 5274.9 135.682 5275.17 135.532 5267.94 139.717 5268.23 139.538 5261.39 143.964 5261.7 143.753 5255.27 148.434 5255.59 148.186 5249.56 153.135 5249.89 152.846 5244.3 158.078 5244.63 157.746 5239.47 163.272 5239.8 162.897 5235.09 168.732 5235.4 168.316 5231.17 174.472 5231.45 174.02 5227.69 180.511 5227.94 180.03 5224.68 186.869 5224.89 186.369 5222.12 193.57 5222.3 193.061 5220.05 200.637 5220.18 200.131 5218.46 208.095 5218.55 207.601 5217.37 215.966 5217.42 215.494 5216.8 224.273 5216.82 223.827 5216.77 233.035 5216.76 232.619 5217.29 242.268 5217.25 241.884 5218.38 251.987 5218.33 251.636 5220.14 262.676 5220.39 273.051 5220.24 282.577 5219.7 291.625 5218.77 300.215 5217.47 308.369 5215.8 316.103 5213.76 323.436 5211.36 330.384 5208.61 336.961 5205.53 343.181 5202.12 349.057 5198.39 354.604 5194.37 359.838 5190.01 364.846 5180.72 373.832 5170.42 381.957 5159.3 389.338 5147.45 396.169 5134.96 402.644 5121.89 408.951 5108.31 415.275 5094.25 421.807 5094.32 421.775 5079.83 428.71ZM5350.36 79.8464 5395.06 91.1634 5359.19 120.14Z" fill="#7030A0" fill-rule="nonzero" fill-opacity="1"/><path d="M4185 607.002C4185 557.295 4225.3 517 4275 517L5481 517C5530.7 517 5571 557.295 5571 607.002L5571 966.998C5571 1016.7 5530.7 1057 5481 1057L4275 1057C4225.3 1057 4185 1016.7 4185 966.998Z" stroke="#000000" stroke-width="10.3125" stroke-linecap="butt" stroke-linejoin="miter" stroke-miterlimit="8" stroke-opacity="1" fill="#DBDBDB" fill-rule="evenodd" fill-opacity="1"/><text fill="#FF0000" fill-opacity="1" font-family="Times New Roman,Times New Roman_MSFontService,sans-serif" font-style="normal" font-variant="normal" font-weight="700" font-stretch="normal" font-size="110" text-anchor="start" direction="ltr" writing-mode="lr-tb" unicode-bidi="normal" text-decoration="none" transform="matrix(1 0 0 1 4545.09 651)">Loss</text><text fill="#FF32CD" fill-opacity="1" font-family="Times New Roman,Times New Roman_MSFontService,sans-serif" font-style="normal" font-variant="normal" font-weight="700" font-stretch="normal" font-size="110" text-anchor="start" direction="ltr" writing-mode="lr-tb" unicode-bidi="normal" text-decoration="none" transform="matrix(1 0 0 1 4543.26 822)">Task Distribution</text><text fill="#7030A0" fill-opacity="1" font-family="Times New Roman,Times New Roman_MSFontService,sans-serif" font-style="normal" font-variant="normal" font-weight="700" font-stretch="normal" font-size="110" text-anchor="start" direction="ltr" writing-mode="lr-tb" unicode-bidi="normal" text-decoration="none" transform="matrix(1 0 0 1 4543.26 990)">Fine</text><text fill="#7030A0" fill-opacity="1" font-family="Times New Roman,Times New Roman_MSFontService,sans-serif" font-style="normal" font-variant="normal" font-weight="700" font-stretch="normal" font-size="110" text-anchor="start" direction="ltr" writing-mode="lr-tb" unicode-bidi="normal" text-decoration="none" transform="matrix(1 0 0 1 4750.65 990)">-</text><text fill="#7030A0" fill-opacity="1" font-family="Times New Roman,Times New Roman_MSFontService,sans-serif" font-style="normal" font-variant="normal" font-weight="700" font-stretch="normal" font-size="110" text-anchor="start" direction="ltr" writing-mode="lr-tb" unicode-bidi="normal" text-decoration="none" transform="matrix(1 0 0 1 4787.32 990)">Tuning</text><path d="M34.375-6.87495 227.002-6.87469 227.002 6.87531 34.375 6.87505ZM41.25 20.6251 0 0 41.25-20.6249ZM220.127-20.6247 261.377 0.000360892 220.127 20.6253Z" fill="#FF0000" fill-rule="nonzero" fill-opacity="1" transform="matrix(1 0 0 -1 4218 613)"/><path d="M4259.72 997.245 4276.1 994.139 4292.14 991.167 4307.57 988.305 4307.53 988.312 4322.1 985.53 4322.02 985.545 4335.48 982.814 4335.39 982.834 4341.63 981.479 4341.54 981.498 4347.4 980.146 4347.29 980.172 4352.75 978.818 4352.61 978.855 4357.63 977.497 4357.45 977.548 4362 976.182 4361.77 976.258 4365.82 974.88 4365.5 974.997 4369.02 973.604 4368.59 973.793 4371.54 972.381 4370.94 972.709 4373.3 971.276 4372.44 971.894 4374.17 970.435 4373.02 971.673 4374.1 970.185 4373 972.533 4373.38 971.013 4373.34 974.162 4373 972.606 4374.05 975.026 4372.95 973.43 4374.1 974.723 4372.22 973.084 4373.09 973.731 4370.39 972.046 4371.01 972.39 4367.46 970.656 4367.9 970.854 4363.47 969.066 4363.8 969.189 4358.45 967.344 4358.7 967.425 4352.4 965.52 4352.6 965.576 4345.32 963.607 4345.48 963.647 4337.19 961.611 4337.6 961.698 4326.33 959.648 4316.27 957.608 4307.43 955.584 4299.79 953.565 4293.26 951.532 4287.76 949.447 4283.19 947.218 4279.35 944.616 4276.17 941.071 4274.52 936.013 4275.79 930.828 4278.75 927.157 4282.29 924.556 4286.38 922.414 4291.13 920.47 4296.61 918.624 4302.84 916.833 4309.82 915.075 4317.54 913.339 4325.99 911.619 4335.14 909.91 4344.96 908.209 4355.43 906.513 4366.53 904.819 4378.22 903.127 4390.48 901.433 4403.27 899.738 4416.56 898.038 4430.34 896.332 4440.05 895.183 4441.67 908.838 4431.98 909.984 4432.01 909.98 4418.27 911.682 4418.29 911.679 4405.02 913.375 4405.06 913.37 4392.3 915.062 4392.34 915.057 4380.12 916.744 4380.17 916.738 4368.53 918.424 4368.58 918.416 4357.54 920.101 4357.6 920.091 4347.2 921.776 4347.27 921.764 4337.53 923.451 4337.62 923.435 4328.57 925.125 4328.68 925.104 4320.35 926.799 4320.49 926.77 4312.92 928.471 4313.09 928.43 4306.31 930.139 4306.53 930.079 4300.56 931.796 4300.85 931.703 4295.73 933.43 4296.14 933.278 4291.89 935.017 4292.48 934.743 4289.14 936.494 4290.01 935.946 4287.61 937.711 4288.89 936.487 4287.46 938.267 4288.78 935.581 4288.35 937.379 4288.21 933.625 4288.79 935.44 4287.37 932.969 4289.02 934.803 4287.76 933.707 4290.5 935.562 4289.65 935.071 4293.5 936.949 4292.94 936.703 4297.94 938.604 4297.54 938.466 4303.73 940.392 4303.44 940.309 4310.83 942.261 4310.62 942.207 4319.25 944.186 4319.08 944.15 4328.99 946.158 4328.85 946.132 4340.27 948.208 4348.84 950.313 4356.29 952.33 4362.8 954.302 4368.45 956.247 4373.27 958.192 4377.36 960.19 4380.83 962.351 4383.78 964.92 4386.14 968.342 4387.11 972.791 4386.02 977.158 4383.68 980.405 4380.89 982.753 4377.78 984.641 4374.3 986.303 4370.4 987.844 4366.07 989.316 4361.31 990.745 4356.13 992.147 4350.55 993.531 4344.59 994.906 4338.26 996.28 4324.72 999.028 4310.09 1001.82 4294.65 1004.69 4278.62 1007.66 4278.65 1007.65 4262.28 1010.75ZM4431.63 882.328 4475 898 4436.44 923.297Z" fill="#7030A0" fill-rule="nonzero" fill-opacity="1"/><path d="M4336 770.5C4336 759.731 4344.95 751 4356 751 4367.05 751 4376 759.731 4376 770.5 4376 781.27 4367.05 790 4356 790 4344.95 790 4336 781.27 4336 770.5Z" fill="#FF33CC" fill-rule="evenodd" fill-opacity="1"/><path d="M4257 770.5C4257 725.489 4300.65 689 4354.5 689 4408.35 689 4452 725.489 4452 770.5 4452 815.511 4408.35 852 4354.5 852 4300.65 852 4257 815.511 4257 770.5Z" stroke="#FF33CC" stroke-width="13.75" stroke-linecap="square" stroke-linejoin="miter" stroke-miterlimit="8" stroke-dasharray="41.25 13.75" stroke-opacity="1" fill="#FF33CC" fill-rule="evenodd" fill-opacity="0.2"/><path d="M5051 420C5051 406.193 5062.19 395 5076 395 5089.81 395 5101 406.193 5101 420 5101 433.807 5089.81 445 5076 445 5062.19 445 5051 433.807 5051 420Z" fill="#000000" fill-rule="evenodd" fill-opacity="1"/><text fill="#000000" fill-opacity="1" font-family="Cambria Math,Cambria Math_MSFontService,sans-serif" font-style="normal" font-variant="normal" font-weight="400" font-stretch="normal" font-size="183" text-anchor="start" direction="ltr" writing-mode="lr-tb" unicode-bidi="normal" text-decoration="none" transform="matrix(1 0 0 1 982.54 1520)">â‹®</text><text fill="#000000" fill-opacity="1" font-family="Times New Roman,Times New Roman_MSFontService,sans-serif" font-style="normal" font-variant="normal" font-weight="400" font-stretch="normal" font-size="128" text-anchor="start" direction="ltr" writing-mode="lr-tb" unicode-bidi="normal" text-decoration="none" transform="matrix(1 0 0 1 1938.12 1508)">Initialization </text><text fill="#000000" fill-opacity="1" font-family="Cambria Math,Cambria Math_MSFontService,sans-serif" font-style="normal" font-variant="normal" font-weight="400" font-stretch="normal" font-size="128" text-anchor="start" direction="ltr" writing-mode="lr-tb" unicode-bidi="normal" text-decoration="none" transform="matrix(1 0 0 1 2624.47 1508)">ğœƒ</text><text fill="#000000" fill-opacity="1" font-family="Cambria Math,Cambria Math_MSFontService,sans-serif" font-style="normal" font-variant="normal" font-weight="400" font-stretch="normal" font-size="93" text-anchor="start" direction="ltr" writing-mode="lr-tb" unicode-bidi="normal" text-decoration="none" transform="matrix(1 0 0 1 2702.92 1461)">â‹†</text><path d="M6.8064e-06-6.875 330.155-6.87467 330.155 6.87533-6.8064e-06 6.875ZM323.28-20.6247 364.53 0.000360892 323.28 20.6253Z" fill="#000000" fill-rule="nonzero" fill-opacity="1" transform="matrix(1 0 0 -1 2368 466)"/><path d="M2368 175.125 2698.15 175.125 2698.15 188.875 2368 188.875ZM2691.28 161.375 2732.53 182 2691.28 202.625Z" fill="#000000" fill-rule="nonzero" fill-opacity="1"/><path d="M6.8064e-06-6.875 330.155-6.87467 330.155 6.87533-6.8064e-06 6.875ZM323.28-20.6247 364.53 0.000360892 323.28 20.6253Z" fill="#000000" fill-rule="nonzero" fill-opacity="1" transform="matrix(1 0 0 -1 2368 751)"/><text fill="#000000" fill-opacity="1" font-family="Times New Roman,Times New Roman_MSFontService,sans-serif" font-style="normal" font-variant="normal" font-weight="400" font-stretch="normal" font-size="128" text-anchor="start" direction="ltr" writing-mode="lr-tb" unicode-bidi="normal" text-decoration="none" transform="matrix(1 0 0 1 776.192 508)">S</text><text fill="#000000" fill-opacity="1" font-family="Times New Roman,Times New Roman_MSFontService,sans-serif" font-style="normal" font-variant="normal" font-weight="400" font-stretch="normal" font-size="128" text-anchor="start" direction="ltr" writing-mode="lr-tb" unicode-bidi="normal" text-decoration="none" transform="matrix(1 0 0 1 847.807 508)">upport </text><text fill="#000000" fill-opacity="1" font-family="Cambria Math,Cambria Math_MSFontService,sans-serif" font-style="normal" font-variant="normal" font-weight="400" font-stretch="normal" font-size="128" text-anchor="start" direction="ltr" writing-mode="lr-tb" unicode-bidi="normal" text-decoration="none" transform="matrix(1 0 0 1 1215.05 508)">ğ’®</text><path d="M3333 459.125 3610.44 459.125 3610.44 472.875 3333 472.875ZM3603.56 445.375 3644.81 466 3603.56 486.625Z" fill="#000000" fill-rule="nonzero" fill-opacity="1"/><path d="M3332 175.125 3609.44 175.125 3609.44 188.875 3332 188.875ZM3602.56 161.375 3643.81 182 3602.56 202.625Z" fill="#000000" fill-rule="nonzero" fill-opacity="1"/><path d="M3333 747.125 3610.44 747.125 3610.44 760.875 3333 760.875ZM3603.56 733.375 3644.81 754 3603.56 774.625Z" fill="#000000" fill-rule="nonzero" fill-opacity="1"/><path d="M649 602 737.466 336 1429 336 1340.53 602Z" stroke="#000000" stroke-width="10.3125" stroke-linecap="butt" stroke-linejoin="miter" stroke-miterlimit="8" stroke-opacity="1" fill="none" fill-rule="evenodd"/><text fill="#000000" fill-opacity="1" font-family="Cambria Math,Cambria Math_MSFontService,sans-serif" font-style="normal" font-variant="normal" font-weight="400" font-stretch="normal" font-size="128" text-anchor="start" direction="ltr" writing-mode="lr-tb" unicode-bidi="normal" text-decoration="none" transform="matrix(1 0 0 1 648.024 1777)">ğœƒ</text><path d="M853.101 1660.65C861.941 1662.98 868.729 1668.01 873.467 1675.74 878.205 1683.48 880.574 1692.81 880.574 1703.74 880.574 1714.7 878.213 1724.03 873.49 1731.73 868.767 1739.44 861.971 1744.46 853.101 1746.79L852.011 1743.29C859.004 1740.96 864.204 1736.36 867.609 1729.49 871.015 1722.62 872.718 1713.88 872.718 1703.29 872.718 1693.05 871.023 1684.55 867.632 1677.79 864.241 1671.02 858.989 1666.47 851.875 1664.14ZM762.115 1660.65 763.341 1664.14C756.257 1666.47 751.012 1671.02 747.606 1677.79 744.201 1684.55 742.498 1693.05 742.498 1703.29 742.498 1713.88 744.201 1722.62 747.606 1729.49 751.012 1736.36 756.211 1740.96 763.205 1743.29L762.115 1746.79C753.245 1744.46 746.448 1739.44 741.726 1731.73 737.003 1724.03 734.642 1714.7 734.642 1703.74 734.642 1692.81 737.011 1683.48 741.748 1675.74 746.486 1668.01 753.275 1662.98 762.115 1660.65Z" fill="#000000" fill-rule="evenodd" fill-opacity="1"/><text fill="#000000" fill-opacity="1" font-family="Cambria Math,Cambria Math_MSFontService,sans-serif" font-style="normal" font-variant="normal" font-weight="400" font-stretch="normal" font-size="93" text-anchor="start" direction="ltr" writing-mode="lr-tb" unicode-bidi="normal" text-decoration="none" transform="matrix(1 0 0 1 765.357 1730)">ğ‘€</text><path d="M4.66649-5.04871 292.418 260.918 283.085 271.015-4.66649 5.04871ZM296.702 246.154 312.995 289.299 268.703 276.446Z" fill="#000000" fill-rule="nonzero" fill-opacity="1" transform="matrix(1 0 0 -1 1385 468.299)"/><path d="M0.0108296-6.87499 271.264-6.44771 271.243 7.30227-0.0108296 6.87499ZM264.411-20.2085 305.628 0.48143 264.346 21.0414Z" fill="#000000" fill-rule="nonzero" fill-opacity="1" transform="matrix(1 0 0 -1 1385 468.481)"/><path d="M1389.59 463.88 1677.5 721.904 1668.32 732.143 1380.41 474.12ZM1681.56 707.076 1698.51 749.965 1654.03 737.795Z" fill="#000000" fill-rule="nonzero" fill-opacity="1"/><text fill="#000000" fill-opacity="1" font-family="Cambria Math,Cambria Math_MSFontService,sans-serif" font-style="normal" font-variant="normal" font-weight="400" font-stretch="normal" font-size="128" text-anchor="start" direction="ltr" writing-mode="lr-tb" unicode-bidi="normal" text-decoration="none" transform="matrix(1 0 0 1 647.475 1245)">ğœƒ</text><path d="M822.187 1127.97C831.027 1130.3 837.816 1135.33 842.554 1143.07 847.292 1150.8 849.66 1160.13 849.66 1171.06 849.66 1182.02 847.299 1191.35 842.576 1199.06 837.854 1206.76 831.057 1211.78 822.187 1214.11L821.097 1210.62C828.091 1208.28 833.29 1203.68 836.696 1196.81 840.102 1189.94 841.805 1181.2 841.805 1170.61 841.805 1160.38 840.109 1151.88 836.719 1145.11 833.328 1138.34 828.076 1133.8 820.961 1131.47ZM761.566 1127.97 762.792 1131.47C755.708 1133.8 750.463 1138.34 747.057 1145.11 743.652 1151.88 741.949 1160.38 741.949 1170.61 741.949 1181.2 743.652 1189.94 747.057 1196.81 750.463 1203.68 755.663 1208.28 762.656 1210.62L761.566 1214.11C752.696 1211.78 745.899 1206.76 741.177 1199.06 736.454 1191.35 734.093 1182.02 734.093 1171.06 734.093 1160.13 736.462 1150.8 741.199 1143.07 745.937 1135.33 752.726 1130.3 761.566 1127.97Z" fill="#000000" fill-rule="evenodd" fill-opacity="1"/><text fill="#000000" fill-opacity="1" font-family="Cambria Math,Cambria Math_MSFontService,sans-serif" font-style="normal" font-variant="normal" font-weight="400" font-stretch="normal" font-size="93" text-anchor="start" direction="ltr" writing-mode="lr-tb" unicode-bidi="normal" text-decoration="none" transform="matrix(1 0 0 1 764.809 1198)">1</text><path d="M1399.25 1187.57 1586.68 1409.72 1576.17 1418.59 1388.75 1196.43ZM1592.76 1395.6 1603.59 1440.43 1561.23 1422.2Z" fill="#000000" fill-rule="nonzero" fill-opacity="1"/><path d="M1.15741e-05-6.875 179.995-6.8747 179.995 6.8753-1.15741e-05 6.875ZM173.12-20.6247 214.37 0.000360892 173.12 20.6253Z" fill="#000000" fill-rule="nonzero" fill-opacity="1" transform="matrix(1 0 0 -1 1394 1458)"/><path d="M5.26726-4.41833 193.582 220.079 183.048 228.916-5.26726 4.41833ZM199.698 205.975 210.406 250.834 168.095 232.485Z" fill="#000000" fill-rule="nonzero" fill-opacity="1" transform="matrix(1 0 0 -1 1395 1724.83)"/><text fill="#000000" fill-opacity="1" font-family="Cambria Math,Cambria Math_MSFontService,sans-serif" font-style="normal" font-variant="normal" font-weight="400" font-stretch="normal" font-size="128" text-anchor="start" direction="ltr" writing-mode="lr-tb" unicode-bidi="normal" text-decoration="none" transform="matrix(1 0 0 1 1776.75 219)">ğ‘“</text><path d="M2249.58 105.487C2262.58 108.904 2272.6 117.758 2279.64 132.049 2286.68 146.341 2290.2 163.258 2290.2 182.799 2290.2 202.341 2286.68 219.258 2279.64 233.549 2272.6 247.841 2262.58 256.695 2249.58 260.112L2248.02 254.987C2258.1 251.195 2265.74 242.935 2270.92 230.206 2276.11 217.477 2278.7 201.695 2278.7 182.862 2278.7 163.987 2276.11 148.174 2270.92 135.424 2265.74 122.674 2258.1 114.404 2248.02 110.612ZM1902.85 105.487 1904.42 110.612C1894.33 114.404 1886.7 122.674 1881.51 135.424 1876.32 148.174 1873.73 163.987 1873.73 182.862 1873.73 201.695 1876.32 217.477 1881.51 230.206 1886.7 242.935 1894.33 251.195 1904.42 254.987L1902.85 260.112C1889.85 256.695 1879.83 247.841 1872.79 233.549 1865.75 219.258 1862.23 202.341 1862.23 182.799 1862.23 163.258 1865.75 146.341 1872.79 132.049 1879.83 117.758 1889.85 108.904 1902.85 105.487Z" fill="#000000" fill-rule="evenodd" fill-opacity="1"/><text fill="#000000" fill-opacity="1" font-family="Cambria Math,Cambria Math_MSFontService,sans-serif" font-style="normal" font-variant="normal" font-weight="400" font-stretch="normal" font-size="128" text-anchor="start" direction="ltr" writing-mode="lr-tb" unicode-bidi="normal" text-decoration="none" transform="matrix(1 0 0 1 1908.64 219)">â‹…</text><text fill="#000000" fill-opacity="1" font-family="Cambria Math,Cambria Math_MSFontService,sans-serif" font-style="normal" font-variant="normal" font-weight="400" font-stretch="normal" font-size="128" text-anchor="start" direction="ltr" writing-mode="lr-tb" unicode-bidi="normal" text-decoration="none" transform="matrix(1 0 0 1 1944.73 219)"> </text><text fill="#000000" fill-opacity="1" font-family="Cambria Math,Cambria Math_MSFontService,sans-serif" font-style="normal" font-variant="normal" font-weight="400" font-stretch="normal" font-size="128" text-anchor="start" direction="ltr" writing-mode="lr-tb" unicode-bidi="normal" text-decoration="none" transform="matrix(1 0 0 1 1972.8 219)">;</text><text fill="#000000" fill-opacity="1" font-family="Cambria Math,Cambria Math_MSFontService,sans-serif" font-style="normal" font-variant="normal" font-weight="400" font-stretch="normal" font-size="128" text-anchor="start" direction="ltr" writing-mode="lr-tb" unicode-bidi="normal" text-decoration="none" transform="matrix(1 0 0 1 2027.99 219)">ğœƒ</text><path d="M2202.7 102.755C2211.54 105.086 2218.33 110.119 2223.07 117.854 2227.8 125.588 2230.17 134.92 2230.17 145.849 2230.17 156.808 2227.81 166.14 2223.09 173.844 2218.37 181.549 2211.57 186.567 2202.7 188.898L2201.61 185.401C2208.6 183.07 2213.8 178.469 2217.21 171.596 2220.61 164.724 2222.32 155.991 2222.32 145.395 2222.32 135.162 2220.62 126.663 2217.23 119.897 2213.84 113.131 2208.59 108.582 2201.47 106.251ZM2142.08 102.755 2143.3 106.251C2136.22 108.582 2130.98 113.131 2127.57 119.897 2124.16 126.663 2122.46 135.162 2122.46 145.395 2122.46 155.991 2124.16 164.724 2127.57 171.596 2130.98 178.469 2136.18 183.07 2143.17 185.401L2142.08 188.898C2133.21 186.567 2126.41 181.549 2121.69 173.844 2116.97 166.14 2114.61 156.808 2114.61 145.849 2114.61 134.92 2116.97 125.588 2121.71 117.854 2126.45 110.119 2133.24 105.086 2142.08 102.755Z" fill="#000000" fill-rule="evenodd" fill-opacity="1"/><text fill="#000000" fill-opacity="1" font-family="Cambria Math,Cambria Math_MSFontService,sans-serif" font-style="normal" font-variant="normal" font-weight="400" font-stretch="normal" font-size="93" text-anchor="start" direction="ltr" writing-mode="lr-tb" unicode-bidi="normal" text-decoration="none" transform="matrix(1 0 0 1 2145.32 172)">1</text><text fill="#000000" fill-opacity="1" font-family="Cambria Math,Cambria Math_MSFontService,sans-serif" font-style="normal" font-variant="normal" font-weight="400" font-stretch="normal" font-size="128" text-anchor="start" direction="ltr" writing-mode="lr-tb" unicode-bidi="normal" text-decoration="none" transform="matrix(1 0 0 1 1769.86 794)">ğ‘“</text><path d="M2273.06 679.771C2286.06 683.188 2296.08 692.042 2303.12 706.334 2310.16 720.625 2313.68 737.542 2313.68 757.084 2313.68 776.625 2310.16 793.542 2303.12 807.834 2296.08 822.125 2286.06 830.98 2273.06 834.396L2271.49 829.271C2281.58 825.48 2289.21 817.219 2294.4 804.49 2299.59 791.761 2302.18 775.98 2302.18 757.146 2302.18 738.271 2299.59 722.459 2294.4 709.709 2289.21 696.959 2281.58 688.688 2271.49 684.896ZM1895.97 679.771 1897.53 684.896C1887.45 688.688 1879.81 696.959 1874.62 709.709 1869.44 722.459 1866.84 738.271 1866.84 757.146 1866.84 775.98 1869.44 791.761 1874.62 804.49 1879.81 817.219 1887.45 825.48 1897.53 829.271L1895.97 834.396C1882.97 830.98 1872.95 822.125 1865.9 807.834 1858.86 793.542 1855.34 776.625 1855.34 757.084 1855.34 737.542 1858.86 720.625 1865.9 706.334 1872.95 692.042 1882.97 683.188 1895.97 679.771Z" fill="#000000" fill-rule="evenodd" fill-opacity="1"/><text fill="#000000" fill-opacity="1" font-family="Cambria Math,Cambria Math_MSFontService,sans-serif" font-style="normal" font-variant="normal" font-weight="400" font-stretch="normal" font-size="128" text-anchor="start" direction="ltr" writing-mode="lr-tb" unicode-bidi="normal" text-decoration="none" transform="matrix(1 0 0 1 1901.75 794)">â‹…</text><text fill="#000000" fill-opacity="1" font-family="Cambria Math,Cambria Math_MSFontService,sans-serif" font-style="normal" font-variant="normal" font-weight="400" font-stretch="normal" font-size="128" text-anchor="start" direction="ltr" writing-mode="lr-tb" unicode-bidi="normal" text-decoration="none" transform="matrix(1 0 0 1 1937.84 794)"> </text><text fill="#000000" fill-opacity="1" font-family="Cambria Math,Cambria Math_MSFontService,sans-serif" font-style="normal" font-variant="normal" font-weight="400" font-stretch="normal" font-size="128" text-anchor="start" direction="ltr" writing-mode="lr-tb" unicode-bidi="normal" text-decoration="none" transform="matrix(1 0 0 1 1965.92 794)">;</text><text fill="#000000" fill-opacity="1" font-family="Cambria Math,Cambria Math_MSFontService,sans-serif" font-style="normal" font-variant="normal" font-weight="400" font-stretch="normal" font-size="128" text-anchor="start" direction="ltr" writing-mode="lr-tb" unicode-bidi="normal" text-decoration="none" transform="matrix(1 0 0 1 2021.1 794)">ğœƒ</text><path d="M2226.18 677.039C2235.02 679.37 2241.8 684.403 2246.54 692.138 2251.28 699.873 2253.65 709.205 2253.65 720.133 2253.65 731.092 2251.29 740.424 2246.57 748.129 2241.84 755.833 2235.05 760.851 2226.18 763.182L2225.09 759.686C2232.08 757.354 2237.28 752.753 2240.68 745.881 2244.09 739.009 2245.79 730.275 2245.79 719.679 2245.79 709.447 2244.1 700.948 2240.71 694.181 2237.32 687.415 2232.06 682.867 2224.95 680.536ZM2135.19 677.039 2136.42 680.536C2129.33 682.867 2124.09 687.415 2120.68 694.181 2117.28 700.948 2115.57 709.447 2115.57 719.679 2115.57 730.275 2117.28 739.009 2120.68 745.881 2124.09 752.753 2129.29 757.354 2136.28 759.686L2135.19 763.182C2126.32 760.851 2119.52 755.833 2114.8 748.129 2110.08 740.424 2107.72 731.092 2107.72 720.133 2107.72 709.205 2110.09 699.873 2114.82 692.138 2119.56 684.403 2126.35 679.37 2135.19 677.039Z" fill="#000000" fill-rule="evenodd" fill-opacity="1"/><text fill="#000000" fill-opacity="1" font-family="Cambria Math,Cambria Math_MSFontService,sans-serif" font-style="normal" font-variant="normal" font-weight="400" font-stretch="normal" font-size="93" text-anchor="start" direction="ltr" writing-mode="lr-tb" unicode-bidi="normal" text-decoration="none" transform="matrix(1 0 0 1 2138.43 747)">ğ‘€</text><text fill="#000000" fill-opacity="1" font-family="Cambria Math,Cambria Math_MSFontService,sans-serif" font-style="normal" font-variant="normal" font-weight="400" font-stretch="normal" font-size="183" text-anchor="start" direction="ltr" writing-mode="lr-tb" unicode-bidi="normal" text-decoration="none" transform="matrix(1 0 0 1 2007.13 530)">â‹®</text><text fill="#000000" fill-opacity="1" font-family="Cambria Math,Cambria Math_MSFontService,sans-serif" font-style="normal" font-variant="normal" font-weight="400" font-stretch="normal" font-size="183" text-anchor="start" direction="ltr" writing-mode="lr-tb" unicode-bidi="normal" text-decoration="none" transform="matrix(1 0 0 1 3800.27 525)">â‹®</text><text fill="#000000" fill-opacity="1" font-family="Cambria Math,Cambria Math_MSFontService,sans-serif" font-style="normal" font-variant="normal" font-weight="400" font-stretch="normal" font-size="128" text-anchor="start" direction="ltr" writing-mode="lr-tb" unicode-bidi="normal" text-decoration="none" transform="matrix(1 0 0 1 3689.86 796)">ğœ</text><text fill="#000000" fill-opacity="1" font-family="Cambria Math,Cambria Math_MSFontService,sans-serif" font-style="normal" font-variant="normal" font-weight="400" font-stretch="normal" font-size="93" text-anchor="start" direction="ltr" writing-mode="lr-tb" unicode-bidi="normal" text-decoration="none" transform="matrix(1 0 0 1 3772.43 749)">(</text><text fill="#000000" fill-opacity="1" font-family="Cambria Math,Cambria Math_MSFontService,sans-serif" font-style="normal" font-variant="normal" font-weight="400" font-stretch="normal" font-size="93" text-anchor="start" direction="ltr" writing-mode="lr-tb" unicode-bidi="normal" text-decoration="none" transform="matrix(1 0 0 1 3811.39 749)">ğ‘€</text><text fill="#000000" fill-opacity="1" font-family="Cambria Math,Cambria Math_MSFontService,sans-serif" font-style="normal" font-variant="normal" font-weight="400" font-stretch="normal" font-size="93" text-anchor="start" direction="ltr" writing-mode="lr-tb" unicode-bidi="normal" text-decoration="none" transform="matrix(1 0 0 1 3896.18 749)">)</text><text fill="#000000" fill-opacity="1" font-family="Cambria Math,Cambria Math_MSFontService,sans-serif" font-style="normal" font-variant="normal" font-weight="400" font-stretch="normal" font-size="128" text-anchor="start" direction="ltr" writing-mode="lr-tb" unicode-bidi="normal" text-decoration="none" transform="matrix(1 0 0 1 3708.49 227)">ğœ</text><text fill="#000000" fill-opacity="1" font-family="Cambria Math,Cambria Math_MSFontService,sans-serif" font-style="normal" font-variant="normal" font-weight="400" font-stretch="normal" font-size="93" text-anchor="start" direction="ltr" writing-mode="lr-tb" unicode-bidi="normal" text-decoration="none" transform="matrix(1 0 0 1 3791.06 180)">(</text><text fill="#000000" fill-opacity="1" font-family="Cambria Math,Cambria Math_MSFontService,sans-serif" font-style="normal" font-variant="normal" font-weight="400" font-stretch="normal" font-size="93" text-anchor="start" direction="ltr" writing-mode="lr-tb" unicode-bidi="normal" text-decoration="none" transform="matrix(1 0 0 1 3830.02 180)">1</text><text fill="#000000" fill-opacity="1" font-family="Cambria Math,Cambria Math_MSFontService,sans-serif" font-style="normal" font-variant="normal" font-weight="400" font-stretch="normal" font-size="93" text-anchor="start" direction="ltr" writing-mode="lr-tb" unicode-bidi="normal" text-decoration="none" transform="matrix(1 0 0 1 3884.45 180)">)</text><rect x="607" y="1094" width="311" height="195" stroke="#000000" stroke-width="10.3125" stroke-linecap="butt" stroke-linejoin="miter" stroke-miterlimit="8" stroke-opacity="1" fill="none"/><rect x="607" y="1624" width="312" height="195" stroke="#000000" stroke-width="10.3125" stroke-linecap="butt" stroke-linejoin="miter" stroke-miterlimit="8" stroke-opacity="1" fill="none"/><rect x="1857" y="1363" width="945" height="195" stroke="#000000" stroke-width="10.3125" stroke-linecap="butt" stroke-linejoin="miter" stroke-miterlimit="8" stroke-opacity="1" fill="none"/><text fill="#000000" fill-opacity="1" font-family="Cambria Math,Cambria Math_MSFontService,sans-serif" font-style="normal" font-variant="normal" font-weight="400" font-stretch="normal" font-size="92" text-anchor="start" direction="ltr" writing-mode="lr-tb" unicode-bidi="normal" text-decoration="none" transform="matrix(1 0 0 1 2449.42 141)">âˆ’</text><text fill="#000000" fill-opacity="1" font-family="Cambria Math,Cambria Math_MSFontService,sans-serif" font-style="normal" font-variant="normal" font-weight="400" font-stretch="normal" font-size="92" text-anchor="start" direction="ltr" writing-mode="lr-tb" unicode-bidi="normal" text-decoration="none" transform="matrix(1 0 0 1 2518.17 141)">â„’</text><path d="M2648.95 56.7828C2655.32 58.4622 2660.21 62.088 2663.63 67.6605 2667.04 73.2329 2668.75 79.9558 2668.75 87.8292 2668.75 95.7244 2667.05 102.447 2663.64 107.998 2660.24 113.548 2655.34 117.163 2648.95 118.843L2648.17 116.324C2653.21 114.644 2656.95 111.329 2659.41 106.378 2661.86 101.428 2663.09 95.1355 2663.09 87.502 2663.09 80.1303 2661.87 74.0072 2659.42 69.1326 2656.98 64.2581 2653.2 60.9812 2648.07 59.3018ZM2605.78 56.7828 2606.66 59.3018C2601.56 60.9812 2597.78 64.2581 2595.32 69.1326 2592.87 74.0072 2591.64 80.1303 2591.64 87.502 2591.64 95.1355 2592.87 101.428 2595.32 106.378 2597.78 111.329 2601.52 114.644 2606.56 116.324L2605.78 118.843C2599.39 117.163 2594.49 113.548 2591.09 107.998 2587.68 102.447 2585.98 95.7244 2585.98 87.8292 2585.98 79.9558 2587.69 73.2329 2591.1 67.6605 2594.52 62.088 2599.41 58.4622 2605.78 56.7828Z" fill="#000000" fill-rule="evenodd" fill-opacity="1"/><text fill="#000000" fill-opacity="1" font-family="Cambria Math,Cambria Math_MSFontService,sans-serif" font-style="normal" font-variant="normal" font-weight="400" font-stretch="normal" font-size="67" text-anchor="start" direction="ltr" writing-mode="lr-tb" unicode-bidi="normal" text-decoration="none" transform="matrix(1 0 0 1 2607.87 107)">1</text><text fill="#000000" fill-opacity="1" font-family="Cambria Math,Cambria Math_MSFontService,sans-serif" font-style="normal" font-variant="normal" font-weight="400" font-stretch="normal" font-size="92" text-anchor="start" direction="ltr" writing-mode="lr-tb" unicode-bidi="normal" text-decoration="none" transform="matrix(1 0 0 1 2449.18 712)">âˆ’</text><text fill="#000000" fill-opacity="1" font-family="Cambria Math,Cambria Math_MSFontService,sans-serif" font-style="normal" font-variant="normal" font-weight="400" font-stretch="normal" font-size="92" text-anchor="start" direction="ltr" writing-mode="lr-tb" unicode-bidi="normal" text-decoration="none" transform="matrix(1 0 0 1 2517.93 712)">â„’</text><path d="M2670.39 628.52C2676.75 630.199 2681.65 633.825 2685.06 639.397 2688.47 644.97 2690.18 651.693 2690.18 659.566 2690.18 667.461 2688.48 674.184 2685.07 679.735 2681.67 685.285 2676.78 688.9 2670.39 690.58L2669.6 688.061C2674.64 686.381 2678.38 683.066 2680.84 678.115 2683.29 673.165 2684.52 666.872 2684.52 659.239 2684.52 651.867 2683.3 645.744 2680.85 640.87 2678.41 635.995 2674.63 632.718 2669.5 631.039ZM2605.53 628.52 2606.41 631.039C2601.31 632.718 2597.53 635.995 2595.08 640.87 2592.62 645.744 2591.4 651.867 2591.4 659.239 2591.4 666.872 2592.62 673.165 2595.08 678.115 2597.53 683.066 2601.27 686.381 2606.31 688.061L2605.53 690.58C2599.14 688.9 2594.24 685.285 2590.84 679.735 2587.44 674.184 2585.74 667.461 2585.74 659.566 2585.74 651.693 2587.44 644.97 2590.86 639.397 2594.27 633.825 2599.16 630.199 2605.53 628.52Z" fill="#000000" fill-rule="evenodd" fill-opacity="1"/><text fill="#000000" fill-opacity="1" font-family="Cambria Math,Cambria Math_MSFontService,sans-serif" font-style="normal" font-variant="normal" font-weight="400" font-stretch="normal" font-size="67" text-anchor="start" direction="ltr" writing-mode="lr-tb" unicode-bidi="normal" text-decoration="none" transform="matrix(1 0 0 1 2607.62 679)">ğ‘€</text><text fill="#000000" fill-opacity="1" font-family="Cambria Math,Cambria Math_MSFontService,sans-serif" font-style="normal" font-variant="normal" font-weight="400" font-stretch="normal" font-size="128" text-anchor="start" direction="ltr" writing-mode="lr-tb" unicode-bidi="normal" text-decoration="none" transform="matrix(1 0 0 1 1107.92 1240)">ğœ</text><text fill="#000000" fill-opacity="1" font-family="Cambria Math,Cambria Math_MSFontService,sans-serif" font-style="normal" font-variant="normal" font-weight="400" font-stretch="normal" font-size="93" text-anchor="start" direction="ltr" writing-mode="lr-tb" unicode-bidi="normal" text-decoration="none" transform="matrix(1 0 0 1 1190.49 1193)">(</text><text fill="#000000" fill-opacity="1" font-family="Cambria Math,Cambria Math_MSFontService,sans-serif" font-style="normal" font-variant="normal" font-weight="400" font-stretch="normal" font-size="93" text-anchor="start" direction="ltr" writing-mode="lr-tb" unicode-bidi="normal" text-decoration="none" transform="matrix(1 0 0 1 1229.45 1193)">1</text><text fill="#000000" fill-opacity="1" font-family="Cambria Math,Cambria Math_MSFontService,sans-serif" font-style="normal" font-variant="normal" font-weight="400" font-stretch="normal" font-size="93" text-anchor="start" direction="ltr" writing-mode="lr-tb" unicode-bidi="normal" text-decoration="none" transform="matrix(1 0 0 1 1283.87 1193)">)</text><text fill="#000000" fill-opacity="1" font-family="Cambria Math,Cambria Math_MSFontService,sans-serif" font-style="normal" font-variant="normal" font-weight="400" font-stretch="normal" font-size="128" text-anchor="start" direction="ltr" writing-mode="lr-tb" unicode-bidi="normal" text-decoration="none" transform="matrix(1 0 0 1 968.62 1237)">Ã—</text><text fill="#000000" fill-opacity="1" font-family="Cambria Math,Cambria Math_MSFontService,sans-serif" font-style="normal" font-variant="normal" font-weight="400" font-stretch="normal" font-size="128" text-anchor="start" direction="ltr" writing-mode="lr-tb" unicode-bidi="normal" text-decoration="none" transform="matrix(1 0 0 1 1095.62 1773)">ğœ</text><text fill="#000000" fill-opacity="1" font-family="Cambria Math,Cambria Math_MSFontService,sans-serif" font-style="normal" font-variant="normal" font-weight="400" font-stretch="normal" font-size="93" text-anchor="start" direction="ltr" writing-mode="lr-tb" unicode-bidi="normal" text-decoration="none" transform="matrix(1 0 0 1 1178.19 1726)">(</text><text fill="#000000" fill-opacity="1" font-family="Cambria Math,Cambria Math_MSFontService,sans-serif" font-style="normal" font-variant="normal" font-weight="400" font-stretch="normal" font-size="93" text-anchor="start" direction="ltr" writing-mode="lr-tb" unicode-bidi="normal" text-decoration="none" transform="matrix(1 0 0 1 1217.14 1726)">ğ‘€</text><text fill="#000000" fill-opacity="1" font-family="Cambria Math,Cambria Math_MSFontService,sans-serif" font-style="normal" font-variant="normal" font-weight="400" font-stretch="normal" font-size="93" text-anchor="start" direction="ltr" writing-mode="lr-tb" unicode-bidi="normal" text-decoration="none" transform="matrix(1 0 0 1 1301.94 1726)">)</text><text fill="#000000" fill-opacity="1" font-family="Cambria Math,Cambria Math_MSFontService,sans-serif" font-style="normal" font-variant="normal" font-weight="400" font-stretch="normal" font-size="128" text-anchor="start" direction="ltr" writing-mode="lr-tb" unicode-bidi="normal" text-decoration="none" transform="matrix(1 0 0 1 968.934 1769)">Ã—</text><rect x="1698" y="82.0002" width="672" height="195" stroke="#000000" stroke-width="10.3125" stroke-linecap="butt" stroke-linejoin="miter" stroke-miterlimit="8" stroke-opacity="1" fill="none"/><rect x="1698" y="652" width="673" height="195" stroke="#000000" stroke-width="10.3125" stroke-linecap="butt" stroke-linejoin="miter" stroke-miterlimit="8" stroke-opacity="1" fill="none"/><path d="M1.90972e-05-6.875 95.5463-6.87473 95.5462 6.87527-1.90972e-05 6.875ZM88.6713-20.6248 129.921 0.000360892 88.6712 20.6252Z" fill="#000000" fill-rule="nonzero" fill-opacity="1" transform="matrix(1 0 0 -1 1730 1460)"/><text fill="#000000" fill-opacity="1" font-family="Times New Roman,Times New Roman_MSFontService,sans-serif" font-style="normal" font-variant="normal" font-weight="400" font-stretch="normal" font-size="92" text-anchor="start" direction="ltr" writing-mode="lr-tb" unicode-bidi="normal" text-decoration="none" transform="matrix(1 0 0 1 6191.27 922)">Expand basis</text><path d="M6001 968.915 6038.5 968.915 6038.5 749 6113.5 749 6113.5 968.915 6151 968.915 6076 1058Z" stroke="#000000" stroke-width="8.25" stroke-linecap="butt" stroke-linejoin="miter" stroke-miterlimit="8" stroke-opacity="1" fill="none" fill-rule="evenodd"/><path d="M5644 1399 5644 1528.92" stroke="#00B0F0" stroke-width="10.3125" stroke-linecap="butt" stroke-linejoin="miter" stroke-miterlimit="8" stroke-dasharray="10.3125 10.3125" stroke-opacity="1" fill="none" fill-rule="evenodd"/><path d="M5620 1549C5620 1535.19 5631.19 1524 5645 1524 5658.81 1524 5670 1535.19 5670 1549 5670 1562.81 5658.81 1574 5645 1574 5631.19 1574 5620 1562.81 5620 1549Z" fill="#00B0F0" fill-rule="evenodd" fill-opacity="1"/><text fill="#00B0F0" fill-opacity="1" font-family="Cambria Math,Cambria Math_MSFontService,sans-serif" font-style="normal" font-variant="normal" font-weight="400" font-stretch="normal" font-size="110" text-anchor="start" direction="ltr" writing-mode="lr-tb" unicode-bidi="normal" text-decoration="none" transform="matrix(1 0 0 1 5487.01 1656)">ğœ™</text><text fill="#00B0F0" fill-opacity="1" font-family="Cambria Math,Cambria Math_MSFontService,sans-serif" font-style="normal" font-variant="normal" font-weight="400" font-stretch="normal" font-size="80" text-anchor="start" direction="ltr" writing-mode="lr-tb" unicode-bidi="normal" text-decoration="none" transform="matrix(1 0 0 1 5562.06 1679)">ğ‘ğ‘Ÿğ‘œğ‘—</text><path d="M0 0 0.25082 297.152" stroke="#00B0F0" stroke-width="10.3125" stroke-linecap="butt" stroke-linejoin="miter" stroke-miterlimit="8" stroke-dasharray="10.3125 10.3125" stroke-opacity="1" fill="none" fill-rule="evenodd" transform="matrix(-1 0 0 1 5417.25 116)"/><text fill="#00B0F0" fill-opacity="1" font-family="Cambria Math,Cambria Math_MSFontService,sans-serif" font-style="normal" font-variant="normal" font-weight="400" font-stretch="normal" font-size="110" text-anchor="start" direction="ltr" writing-mode="lr-tb" unicode-bidi="normal" text-decoration="none" transform="matrix(1 0 0 1 5440.96 368)">ğœ™</text><text fill="#00B0F0" fill-opacity="1" font-family="Cambria Math,Cambria Math_MSFontService,sans-serif" font-style="normal" font-variant="normal" font-weight="400" font-stretch="normal" font-size="80" text-anchor="start" direction="ltr" writing-mode="lr-tb" unicode-bidi="normal" text-decoration="none" transform="matrix(1 0 0 1 5516.01 391)">ğ‘ğ‘Ÿğ‘œğ‘—</text><path d="M5395 420C5395 406.193 5405.97 395 5419.5 395 5433.03 395 5444 406.193 5444 420 5444 433.807 5433.03 445 5419.5 445 5405.97 445 5395 433.807 5395 420Z" fill="#00B0F0" fill-rule="evenodd" fill-opacity="1"/></g></g></svg>